<svg width="147" height="52" viewBox="0 0 147 52" fill="none" xmlns="http://www.w3.org/2000/svg">
<g clip-path="url(#clip0_2_1088)">
<path d="M0 6C0 2.68629 2.68629 0 6 0H141C144.314 0 147 2.68629 147 6V46C147 49.3137 144.314 52 141 52H6C2.68629 52 0 49.3137 0 46V6Z" fill="#35B8BE"/>
<g opacity="0.2">
<path opacity="0.2" fill-rule="evenodd" clip-rule="evenodd" d="M-1.91695 -49.4416C2.46842 -46.1951 3.237 -39.4041 5.06891 -33.7621C6.77321 -28.5135 8.5014 -23.401 8.35664 -17.8041C8.18949 -11.2105 8.73795 -3.08027 4.19214 0.865665C-0.386501 4.84193 -6.8515 0.109136 -12.5785 0.375203C-17.7601 0.614403 -23.3595 5.72433 -27.6569 2.34086C-31.9997 -1.08074 -29.926 -9.11834 -31.8281 -14.7881C-33.5824 -20.0167 -38.7602 -23.8179 -38.3028 -29.394C-37.8387 -35.0534 -33.272 -38.8573 -29.5522 -42.551C-25.9212 -46.1546 -21.9313 -49.1219 -17.2534 -50.2876C-12.1293 -51.5659 -6.34486 -52.7185 -1.91695 -49.4416Z" stroke="white"/>
<path opacity="0.2" fill-rule="evenodd" clip-rule="evenodd" d="M0.789518 -55.9981C6.2427 -51.9611 7.20006 -43.5182 9.47968 -36.5103C11.6011 -29.9843 13.7479 -23.6324 13.574 -16.6739C13.3688 -8.48304 14.0538 1.61978 8.40366 6.52338C2.71244 11.4634 -5.32628 5.57676 -12.4457 5.90089C-18.8876 6.19729 -25.8466 12.5448 -31.1908 8.33712C-36.5918 4.08439 -34.0167 -5.90395 -36.3836 -12.95C-38.5662 -19.45 -45.0051 -24.1757 -44.4425 -31.103C-43.8679 -38.1342 -38.1916 -42.8609 -33.569 -47.4482C-29.0567 -51.9245 -24.0975 -55.6108 -18.2817 -57.0573C-11.9085 -58.6441 -4.71739 -60.0749 0.789518 -55.9981Z" stroke="white"/>
<path opacity="0.2" fill-rule="evenodd" clip-rule="evenodd" d="M3.30564 -62.083C9.75051 -57.3164 10.8847 -47.3429 13.58 -39.0584C16.0879 -31.3503 18.6265 -23.8448 18.422 -15.6271C18.1817 -5.95075 18.9936 5.9877 12.3182 11.7762C5.59422 17.6088 -3.90708 10.6538 -12.3189 11.0377C-19.9301 11.3844 -28.1524 18.8794 -34.4681 13.9056C-40.8511 8.87893 -37.8103 -2.91652 -40.6093 -11.2409C-43.1896 -18.9187 -50.7993 -24.5061 -50.1322 -32.6892C-49.4554 -40.9979 -42.7486 -46.58 -37.2872 -51.9958C-31.9564 -57.2824 -26.0944 -61.6351 -19.2257 -63.3433C-11.7025 -65.2118 -3.20563 -66.8991 3.30564 -62.083Z" stroke="white"/>
<path opacity="0.2" fill-rule="evenodd" clip-rule="evenodd" d="M5.91137 -68.4033C13.3852 -62.8723 14.7023 -51.3115 17.8296 -41.7097C20.7397 -32.7735 23.6834 -24.0703 23.4484 -14.5413C23.173 -3.32061 24.12 10.5189 16.376 17.2295C8.57974 23.9895 -2.44003 15.9235 -12.195 16.3629C-21.0225 16.7615 -30.5551 25.4525 -37.8797 19.684C-45.282 13.8556 -41.7599 0.178696 -45.0051 -9.47337C-47.9988 -18.3749 -56.8248 -24.8547 -56.0488 -34.3465C-55.2653 -43.9769 -47.4885 -50.4493 -41.1563 -56.7274C-34.9748 -62.8548 -28.1815 -67.9004 -20.2129 -69.8781C-11.4891 -72.0344 -1.63637 -73.9907 5.91137 -68.4033Z" stroke="white"/>
<path opacity="0.2" fill-rule="evenodd" clip-rule="evenodd" d="M9.10057 -76.1295C17.831 -69.665 19.3734 -56.1616 23.0275 -44.9426C26.4287 -34.5027 29.8701 -24.3378 29.594 -13.2081C29.2731 -0.10325 30.3775 16.063 21.3351 23.902C12.2316 31.7947 -0.646213 22.3711 -12.0421 22.8851C-22.3552 23.3496 -33.4906 33.4967 -42.0487 26.7593C-50.6978 19.9499 -46.5833 3.97477 -50.3777 -7.30056C-53.8766 -17.7006 -64.1883 -25.2674 -63.2869 -36.3521C-62.3728 -47.6006 -53.2879 -55.1589 -45.8924 -62.4901C-38.6722 -69.647 -30.7364 -75.537 -21.4269 -77.8476C-11.228 -80.3748 0.282808 -82.6555 9.10057 -76.1295Z" stroke="white"/>
<path opacity="0.2" fill-rule="evenodd" clip-rule="evenodd" d="M12.5801 -84.556C22.6858 -77.0784 24.4699 -61.4535 28.6978 -48.4725C32.634 -36.3929 36.6179 -24.6304 36.3038 -11.7543C35.9307 3.40803 37.2134 22.1104 26.7525 31.1758C16.2163 40.307 1.31704 29.4018 -11.8697 29.9964C-23.8028 30.5311 -36.6866 42.271 -46.59 34.4736C-56.5987 26.5947 -51.8403 8.11284 -56.2324 -4.93396C-60.2827 -16.9642 -72.2151 -25.7242 -71.1749 -38.5456C-70.1183 -51.5621 -59.6089 -60.2991 -51.0508 -68.7846C-42.6934 -77.063 -33.5153 -83.8769 -22.7432 -86.5462C-10.9437 -89.4721 2.37514 -92.109 12.5801 -84.556Z" stroke="white"/>
<path opacity="0.2" fill-rule="evenodd" clip-rule="evenodd" d="M15.9626 -92.7517C27.4032 -84.2844 29.4239 -66.5993 34.2137 -51.9058C38.6715 -38.2333 43.1822 -24.9186 42.8278 -10.343C42.4099 6.81696 43.8597 27.9874 32.0199 38.2487C20.0927 48.582 3.22581 36.2352 -11.7018 36.9051C-25.2079 37.5118 -39.7937 50.7962 -51.0053 41.9701C-62.3362 33.0495 -56.9509 12.1306 -61.9243 -2.63657C-66.5104 -16.2528 -80.0187 -26.1699 -78.8427 -40.6831C-77.6488 -55.4165 -65.7523 -65.3058 -56.0652 -74.9059C-46.6094 -84.2763 -36.2165 -91.9873 -24.0222 -95.0077C-10.6668 -98.3166 4.41 -101.301 15.9626 -92.7517Z" stroke="white"/>
<path opacity="0.2" fill-rule="evenodd" clip-rule="evenodd" d="M19.0555 -100.244C31.7169 -90.8749 33.954 -71.3056 39.2557 -55.0487C44.1888 -39.9184 49.1801 -25.1869 48.7898 -9.0582C48.3287 9.93047 49.9345 33.3574 36.8328 44.7098C23.6342 56.1446 4.97039 42.4818 -11.5511 43.222C-26.4996 43.8893 -42.6367 58.5905 -55.0444 48.8214C-67.5805 38.9484 -61.6259 15.8013 -67.1328 -0.537103C-72.2069 -15.6067 -87.1583 -26.5805 -85.857 -42.6398C-84.5362 -58.941 -71.3726 -69.8851 -60.6528 -80.507C-50.1897 -90.8741 -38.6886 -99.4005 -25.1952 -102.746C-10.4139 -106.404 6.26803 -109.704 19.0555 -100.244Z" stroke="white"/>
<path opacity="0.2" fill-rule="evenodd" clip-rule="evenodd" d="M22.3418 -108.203C36.3 -97.8728 38.767 -76.3038 44.6126 -58.3803C50.0524 -41.7004 55.5563 -25.4617 55.125 -7.68029C54.6183 13.248 56.3935 39.071 41.9465 51.584C27.3957 64.187 6.82096 49.1262 -11.3891 49.9374C-27.8681 50.6749 -45.6558 66.8765 -59.335 56.1073C-73.159 45.2237 -66.5925 19.707 -72.6613 1.69944C-78.2577 -14.9102 -94.7381 -27.0079 -93.3047 -44.7104C-91.8496 -62.6799 -77.3362 -74.7422 -65.5224 -86.4509C-53.9885 -97.8788 -41.3107 -107.281 -26.4361 -110.963C-10.1437 -114.995 8.24767 -118.634 22.3418 -108.203Z" stroke="white"/>
<path opacity="0.2" fill-rule="evenodd" clip-rule="evenodd" d="M25.916 -116.864C41.2876 -105.488 44.0037 -81.7421 50.4404 -62.0037C56.4301 -43.6417 62.4914 -25.7616 62.0183 -6.1905C61.4609 16.8533 63.413 45.2844 47.5109 59.06C31.4931 72.9354 8.83493 56.3528 -11.2145 57.2463C-29.359 58.0549 -48.9443 75.8935 -64.0054 64.0349C-79.2278 52.0524 -71.9979 23.9636 -78.6808 4.13079C-84.8436 -14.1559 -102.99 -27.48 -101.413 -46.9687C-99.8115 -66.7504 -83.8348 -80.0311 -70.8249 -92.9202C-58.1262 -105.502 -44.1679 -115.852 -27.7897 -119.906C-9.85273 -124.346 10.3952 -128.352 25.916 -116.864Z" stroke="white"/>
</g>
</g>
<path d="M47.233 31V20.8182H50.7926C51.5019 20.8182 52.0869 20.9408 52.5476 21.1861C53.0083 21.428 53.3513 21.7545 53.5767 22.1655C53.8021 22.5732 53.9148 23.0256 53.9148 23.5227C53.9148 23.9602 53.8369 24.3215 53.6811 24.6065C53.5286 24.8916 53.3265 25.117 53.0746 25.2827C52.826 25.4484 52.5559 25.571 52.2642 25.6506V25.75C52.5758 25.7699 52.889 25.8793 53.2038 26.0781C53.5187 26.277 53.7822 26.562 53.9943 26.9332C54.2064 27.3045 54.3125 27.7585 54.3125 28.2955C54.3125 28.8059 54.1965 29.2649 53.9645 29.6726C53.7325 30.0803 53.3662 30.4034 52.8658 30.642C52.3653 30.8807 51.714 31 50.9119 31H47.233ZM48.4659 29.9062H50.9119C51.7173 29.9062 52.2891 29.7505 52.6271 29.4389C52.9685 29.1241 53.1392 28.7429 53.1392 28.2955C53.1392 27.9508 53.0514 27.6326 52.8757 27.3409C52.7 27.0459 52.4498 26.8106 52.125 26.6349C51.8002 26.456 51.4157 26.3665 50.9716 26.3665H48.4659V29.9062ZM48.4659 25.2926H50.7528C51.1241 25.2926 51.4588 25.2197 51.7571 25.0739C52.0587 24.928 52.2973 24.7225 52.473 24.4574C52.652 24.1922 52.7415 23.8807 52.7415 23.5227C52.7415 23.0753 52.5857 22.6958 52.2741 22.3842C51.9626 22.0694 51.4688 21.9119 50.7926 21.9119H48.4659V25.2926ZM60.9918 27.8778V23.3636H62.1651V31H60.9918V29.7074H60.9123C60.7333 30.0952 60.4549 30.425 60.0771 30.6967C59.6992 30.9652 59.2219 31.0994 58.6452 31.0994C58.168 31.0994 57.7437 30.995 57.3725 30.7862C57.0013 30.5741 56.7096 30.2559 56.4975 29.8317C56.2854 29.4041 56.1793 28.8655 56.1793 28.2159V23.3636H57.3526V28.1364C57.3526 28.6932 57.5084 29.1373 57.82 29.4688C58.1348 29.8002 58.5359 29.9659 59.0231 29.9659C59.3147 29.9659 59.6114 29.8913 59.913 29.7422C60.2179 29.593 60.4731 29.3643 60.6786 29.0561C60.8874 28.7479 60.9918 28.3551 60.9918 27.8778ZM64.3141 31V23.3636H65.4476V24.517H65.5272C65.6664 24.1392 65.9183 23.8326 66.2828 23.5973C66.6474 23.362 67.0584 23.2443 67.5158 23.2443C67.602 23.2443 67.7097 23.246 67.839 23.2493C67.9682 23.2526 68.066 23.2576 68.1323 23.2642V24.4574C68.0925 24.4474 68.0014 24.4325 67.8588 24.4126C67.7196 24.3894 67.5721 24.3778 67.4164 24.3778C67.0452 24.3778 66.7137 24.4557 66.4221 24.6115C66.1337 24.764 65.905 24.9761 65.736 25.2479C65.5703 25.5163 65.4874 25.8229 65.4874 26.1676V31H64.3141ZM72.373 34.0227C71.8063 34.0227 71.3191 33.9498 70.9114 33.804C70.5037 33.6615 70.164 33.4725 69.8922 33.2372C69.6238 33.0052 69.41 32.7566 69.2509 32.4915L70.1855 31.8352C70.2916 31.9744 70.4258 32.1335 70.5882 32.3125C70.7507 32.4948 70.9727 32.6522 71.2544 32.7848C71.5395 32.9207 71.9123 32.9886 72.373 32.9886C72.9895 32.9886 73.4983 32.8395 73.8993 32.5412C74.3004 32.2429 74.5009 31.7756 74.5009 31.1392V29.5881H74.4015C74.3153 29.7273 74.1926 29.8996 74.0336 30.1051C73.8778 30.3073 73.6524 30.4879 73.3574 30.647C73.0658 30.8028 72.6713 30.8807 72.1742 30.8807C71.5577 30.8807 71.0042 30.7348 70.5137 30.4432C70.0265 30.1515 69.6403 29.7273 69.3553 29.1705C69.0736 28.6136 68.9327 27.9375 68.9327 27.142C68.9327 26.3598 69.0703 25.6787 69.3453 25.0987C69.6204 24.5154 70.0033 24.0646 70.4938 23.7464C70.9843 23.425 71.5511 23.2642 72.1941 23.2642C72.6912 23.2642 73.0856 23.3471 73.3773 23.5128C73.6723 23.6752 73.8977 23.8608 74.0534 24.0696C74.2125 24.2751 74.3352 24.4441 74.4213 24.5767H74.5407V23.3636H75.6742V31.2188C75.6742 31.875 75.525 32.4086 75.2267 32.8196C74.9318 33.2339 74.534 33.5372 74.0336 33.7294C73.5364 33.925 72.9829 34.0227 72.373 34.0227ZM72.3333 29.8267C72.8039 29.8267 73.2016 29.719 73.5265 29.5036C73.8513 29.2881 74.0982 28.9782 74.2672 28.5739C74.4363 28.1695 74.5208 27.6856 74.5208 27.1222C74.5208 26.572 74.4379 26.0864 74.2722 25.6655C74.1065 25.2446 73.8612 24.9148 73.5364 24.6761C73.2116 24.4375 72.8105 24.3182 72.3333 24.3182C71.8361 24.3182 71.4218 24.4441 71.0904 24.696C70.7623 24.9479 70.5153 25.286 70.3496 25.7102C70.1872 26.1345 70.106 26.6051 70.106 27.1222C70.106 27.6525 70.1889 28.1214 70.3546 28.5291C70.5236 28.9335 70.7722 29.2517 71.1003 29.4837C71.4318 29.7124 71.8427 29.8267 72.3333 29.8267ZM81.0236 31.1591C80.2878 31.1591 79.6531 30.9967 79.1195 30.6719C78.5892 30.3438 78.1799 29.8864 77.8915 29.2997C77.6065 28.7098 77.464 28.0237 77.464 27.2415C77.464 26.4593 77.6065 25.7699 77.8915 25.1733C78.1799 24.5734 78.5809 24.1061 79.0946 23.7713C79.6117 23.4332 80.2149 23.2642 80.9043 23.2642C81.302 23.2642 81.6948 23.3305 82.0826 23.4631C82.4703 23.5956 82.8233 23.8111 83.1415 24.1094C83.4597 24.4044 83.7132 24.7955 83.9022 25.2827C84.0911 25.7699 84.1855 26.3698 84.1855 27.0824V27.5795H78.2992V26.5653H82.9924C82.9924 26.1345 82.9062 25.75 82.7338 25.4119C82.5648 25.0739 82.3229 24.8071 82.008 24.6115C81.6964 24.416 81.3285 24.3182 80.9043 24.3182C80.437 24.3182 80.0326 24.4342 79.6912 24.6662C79.3532 24.8949 79.093 25.1932 78.9107 25.5611C78.7284 25.929 78.6373 26.3234 78.6373 26.7443V27.4205C78.6373 27.9972 78.7367 28.486 78.9355 28.8871C79.1377 29.2848 79.4178 29.5881 79.7757 29.7969C80.1337 30.0024 80.5497 30.1051 81.0236 30.1051C81.3319 30.1051 81.6103 30.062 81.8588 29.9759C82.1107 29.8864 82.3278 29.7538 82.5101 29.5781C82.6924 29.3991 82.8333 29.1771 82.9327 28.9119L84.0662 29.2301C83.9469 29.6146 83.7464 29.9527 83.4647 30.2443C83.1829 30.5327 82.8349 30.758 82.4206 30.9205C82.0063 31.0795 81.5407 31.1591 81.0236 31.1591ZM85.9703 31V23.3636H87.1039V24.517H87.1834C87.3226 24.1392 87.5745 23.8326 87.9391 23.5973C88.3037 23.362 88.7147 23.2443 89.1721 23.2443C89.2582 23.2443 89.3659 23.246 89.4952 23.2493C89.6245 23.2526 89.7222 23.2576 89.7885 23.2642V24.4574C89.7488 24.4474 89.6576 24.4325 89.5151 24.4126C89.3759 24.3894 89.2284 24.3778 89.0726 24.3778C88.7014 24.3778 88.37 24.4557 88.0783 24.6115C87.79 24.764 87.5613 24.9761 87.3922 25.2479C87.2265 25.5163 87.1436 25.8229 87.1436 26.1676V31H85.9703ZM96.5884 25.0739L95.5344 25.3722C95.4682 25.1965 95.3704 25.0258 95.2411 24.8601C95.1152 24.6911 94.9428 24.5518 94.7241 24.4425C94.5053 24.3331 94.2253 24.2784 93.8839 24.2784C93.4165 24.2784 93.0271 24.3861 92.7156 24.6016C92.4073 24.8137 92.2532 25.0838 92.2532 25.4119C92.2532 25.7036 92.3593 25.9339 92.5714 26.103C92.7835 26.272 93.1149 26.4129 93.5657 26.5256L94.6992 26.804C95.382 26.9697 95.8907 27.2232 96.2255 27.5646C96.5603 27.9027 96.7276 28.3385 96.7276 28.8722C96.7276 29.3097 96.6017 29.7008 96.3498 30.0455C96.1012 30.3902 95.7532 30.6619 95.3058 30.8608C94.8583 31.0597 94.3379 31.1591 93.7447 31.1591C92.9658 31.1591 92.3211 30.9901 91.8107 30.652C91.3003 30.3139 90.9772 29.8201 90.8413 29.1705L91.9549 28.892C92.061 29.303 92.2615 29.6113 92.5565 29.8168C92.8548 30.0223 93.2442 30.125 93.7248 30.125C94.2717 30.125 94.7058 30.009 95.0273 29.777C95.3522 29.5417 95.5146 29.2599 95.5146 28.9318C95.5146 28.6667 95.4218 28.4446 95.2362 28.2656C95.0505 28.0833 94.7655 27.9474 94.381 27.858L93.1083 27.5597C92.409 27.3939 91.8952 27.1371 91.5671 26.7891C91.2423 26.4377 91.0799 25.9986 91.0799 25.4716C91.0799 25.0407 91.2009 24.6596 91.4428 24.3281C91.6881 23.9967 92.0212 23.7365 92.4421 23.5476C92.8664 23.3587 93.3469 23.2642 93.8839 23.2642C94.6396 23.2642 95.2328 23.4299 95.6637 23.7614C96.0979 24.0928 96.4061 24.5303 96.5884 25.0739Z" fill="white"/>
<defs>
<clipPath id="clip0_2_1088">
<path d="M0 6C0 2.68629 2.68629 0 6 0H141C144.314 0 147 2.68629 147 6V46C147 49.3137 144.314 52 141 52H6C2.68629 52 0 49.3137 0 46V6Z" fill="white"/>
</clipPath>
</defs>
</svg>
