<svg width="137" height="52" viewBox="0 0 137 52" fill="none" xmlns="http://www.w3.org/2000/svg">
<path d="M0.5 6C0.5 2.96244 2.96243 0.5 6 0.5H131C134.038 0.5 136.5 2.96243 136.5 6V46C136.5 49.0376 134.038 51.5 131 51.5H6C2.96244 51.5 0.5 49.0376 0.5 46V6Z" stroke="#617283" stroke-opacity="0.2"/>
<path d="M50.6875 31H47.321V20.0909H50.8366C51.8949 20.0909 52.8004 20.3093 53.5533 20.7461C54.3061 21.1793 54.8832 21.8026 55.2844 22.6158C55.6857 23.4254 55.8864 24.3949 55.8864 25.5241C55.8864 26.6605 55.6839 27.6388 55.2791 28.4592C54.8743 29.2759 54.2848 29.9045 53.5107 30.3448C52.7365 30.7816 51.7955 31 50.6875 31ZM48.642 29.8281H50.6023C51.5043 29.8281 52.2518 29.6541 52.8448 29.3061C53.4379 28.9581 53.88 28.4627 54.1712 27.82C54.4624 27.1772 54.608 26.4119 54.608 25.5241C54.608 24.6435 54.4641 23.8853 54.1765 23.2496C53.8888 22.6104 53.4592 22.1204 52.8874 21.7795C52.3157 21.435 51.6037 21.2628 50.7514 21.2628H48.642V29.8281ZM57.9318 31V22.8182H59.1463V24.054H59.2315C59.3807 23.6491 59.6506 23.3207 60.0412 23.0685C60.4318 22.8164 60.8722 22.6903 61.3622 22.6903C61.4545 22.6903 61.57 22.6921 61.7085 22.6957C61.8469 22.6992 61.9517 22.7045 62.0227 22.7116V23.9901C61.9801 23.9794 61.8825 23.9634 61.7298 23.9421C61.5806 23.9173 61.4226 23.9048 61.2557 23.9048C60.858 23.9048 60.5028 23.9883 60.1903 24.1552C59.8814 24.3185 59.6364 24.5458 59.4553 24.837C59.2777 25.1246 59.1889 25.4531 59.1889 25.8224V31H57.9318ZM63.5129 31V22.8182H64.77V31H63.5129ZM64.1521 21.4545C63.907 21.4545 63.6958 21.3711 63.5182 21.2042C63.3442 21.0373 63.2572 20.8366 63.2572 20.6023C63.2572 20.3679 63.3442 20.1673 63.5182 20.0004C63.6958 19.8335 63.907 19.75 64.1521 19.75C64.3971 19.75 64.6066 19.8335 64.7806 20.0004C64.9582 20.1673 65.047 20.3679 65.047 20.6023C65.047 20.8366 64.9582 21.0373 64.7806 21.2042C64.6066 21.3711 64.3971 21.4545 64.1521 21.4545ZM68.3295 26.0781V31H67.0724V22.8182H68.2869V24.0966H68.3935C68.5852 23.6811 68.8764 23.3473 69.267 23.0952C69.6577 22.8395 70.1619 22.7116 70.7798 22.7116C71.3338 22.7116 71.8185 22.8253 72.234 23.0526C72.6495 23.2763 72.9727 23.6172 73.2035 24.0753C73.4343 24.5298 73.5497 25.1051 73.5497 25.8011V31H72.2926V25.8864C72.2926 25.2436 72.1257 24.7429 71.7919 24.3842C71.4581 24.022 71 23.8409 70.4176 23.8409C70.0163 23.8409 69.6577 23.9279 69.3416 24.1019C69.0291 24.2759 68.7823 24.5298 68.6012 24.8636C68.4201 25.1974 68.3295 25.6023 68.3295 26.0781ZM77.0187 28.017L76.9974 26.4616H77.2531L80.8327 22.8182H82.3881L78.5741 26.6747H78.4676L77.0187 28.017ZM75.8469 31V20.0909H77.104V31H75.8469ZM81.0457 31L77.8497 26.9517L78.7446 26.0781L82.6437 31H81.0457ZM89.8015 24.6506L88.6722 24.9702C88.6012 24.782 88.4964 24.5991 88.358 24.4215C88.223 24.2404 88.0384 24.0913 87.804 23.9741C87.5696 23.8569 87.2695 23.7983 86.9038 23.7983C86.4031 23.7983 85.9858 23.9137 85.652 24.1445C85.3217 24.3718 85.1566 24.6612 85.1566 25.0128C85.1566 25.3253 85.2702 25.5721 85.4975 25.7532C85.7248 25.9343 86.0799 26.0852 86.5629 26.206L87.7773 26.5043C88.5089 26.6818 89.054 26.9535 89.4126 27.3192C89.7713 27.6815 89.9506 28.1484 89.9506 28.7202C89.9506 29.1889 89.8157 29.608 89.5458 29.9773C89.2795 30.3466 88.9066 30.6378 88.4272 30.8509C87.9478 31.0639 87.3903 31.1705 86.7546 31.1705C85.9201 31.1705 85.2294 30.9893 84.6825 30.6271C84.1357 30.2649 83.7894 29.7358 83.6438 29.0398L84.837 28.7415C84.9506 29.1818 85.1655 29.5121 85.4815 29.7322C85.8011 29.9524 86.2184 30.0625 86.7333 30.0625C87.3192 30.0625 87.7844 29.9382 88.1289 29.6896C88.4769 29.4375 88.6509 29.1357 88.6509 28.7841C88.6509 28.5 88.5515 28.2621 88.3526 28.0703C88.1538 27.875 87.8484 27.7294 87.4364 27.6335L86.0728 27.3139C85.3235 27.1364 84.7731 26.8612 84.4215 26.4883C84.0735 26.1119 83.8995 25.6413 83.8995 25.0767C83.8995 24.6151 84.0291 24.2067 84.2884 23.8516C84.5511 23.4964 84.908 23.2177 85.359 23.0153C85.8136 22.8129 86.3285 22.7116 86.9038 22.7116C87.7134 22.7116 88.3491 22.8892 88.8107 23.2443C89.2759 23.5994 89.6062 24.0682 89.8015 24.6506Z" fill="#222222"/>
</svg>
