<svg width="194" height="60" viewBox="0 0 194 60" fill="none" xmlns="http://www.w3.org/2000/svg">
<g clip-path="url(#clip0_2_1040)">
<path d="M0 6C0 2.68629 2.68629 0 6 0H188C191.314 0 194 2.68629 194 6V54C194 57.3137 191.314 60 188 60H6C2.68629 60 0 57.3137 0 54V6Z" fill="#35B8BE"/>
<g opacity="0.2">
<path opacity="0.2" fill-rule="evenodd" clip-rule="evenodd" d="M-2.52988 -57.0479C3.25762 -53.3019 4.27193 -45.4661 6.68955 -38.9561C8.93877 -32.9001 11.2195 -27.001 11.0285 -20.543C10.8079 -12.935 11.5317 -3.55403 5.53245 0.998966C-0.510104 5.58697 -9.04214 0.126048 -16.6003 0.433048C-23.4385 0.709048 -30.8283 6.60511 -36.4996 2.70111C-42.2309 -1.24689 -39.4942 -10.521 -42.0044 -17.063C-44.3196 -23.096 -51.1529 -27.4821 -50.5493 -33.9161C-49.9367 -40.4461 -43.91 -44.8352 -39.0009 -49.0972C-34.209 -53.2552 -28.9434 -56.679 -22.7699 -58.024C-16.0074 -59.499 -8.37352 -60.8289 -2.52988 -57.0479Z" stroke="white"/>
<path opacity="0.2" fill-rule="evenodd" clip-rule="evenodd" d="M1.04193 -64.613C8.23864 -59.955 9.5021 -50.2132 12.5106 -42.1272C15.3103 -34.5972 18.1435 -27.268 17.914 -19.239C17.6432 -9.78802 18.5472 1.86908 11.0905 7.52708C3.57967 13.2271 -7.02925 6.43482 -16.425 6.80882C-24.9265 7.15082 -34.1105 14.4749 -41.1634 9.61986C-48.2912 4.71286 -44.8928 -6.81215 -48.0165 -14.9422C-50.8969 -22.4422 -59.3945 -27.895 -58.652 -35.888C-57.8937 -44.001 -50.4026 -49.4548 -44.3019 -54.7478C-38.347 -59.9128 -31.8022 -64.1662 -24.1269 -65.8352C-15.716 -67.6662 -6.22568 -69.317 1.04193 -64.613Z" stroke="white"/>
<path opacity="0.2" fill-rule="evenodd" clip-rule="evenodd" d="M4.36254 -71.6342C12.868 -66.1342 14.3648 -54.6263 17.9218 -45.0673C21.2317 -36.1733 24.5819 -27.5132 24.312 -18.0312C23.9949 -6.86622 25.0664 6.90892 16.2566 13.5879C7.38283 20.3179 -5.15629 12.2929 -16.2576 12.7359C-26.3023 13.1359 -37.1535 21.784 -45.4886 16.045C-53.9123 10.245 -49.8993 -3.36518 -53.5932 -12.9702C-56.9986 -21.8292 -67.0413 -28.2762 -66.1609 -37.7182C-65.2677 -47.3052 -56.4166 -53.7461 -49.209 -59.9951C-42.1738 -66.0951 -34.4375 -71.1173 -25.3726 -73.0883C-15.4442 -75.2443 -4.23058 -77.1912 4.36254 -71.6342Z" stroke="white"/>
<path opacity="0.2" fill-rule="evenodd" clip-rule="evenodd" d="M7.80137 -78.9271C17.6648 -72.5451 19.403 -59.2058 23.5301 -48.1268C27.3707 -37.8158 31.2556 -27.7736 30.9454 -16.7786C30.582 -3.83161 31.8318 12.1371 21.6118 19.8801C11.3229 27.6801 -3.2202 18.3731 -16.0941 18.8801C-27.744 19.3401 -40.3244 29.3681 -49.991 22.7121C-59.7599 15.9871 -55.1118 0.206046 -59.3945 -10.931C-63.3454 -21.202 -74.9933 -28.6787 -73.9692 -39.6307C-72.9351 -50.7427 -62.6719 -58.2109 -54.3151 -65.4549C-46.1572 -72.5249 -37.1919 -78.3467 -26.6755 -80.6287C-15.1626 -83.1167 -2.15959 -85.3741 7.80137 -78.9271Z" stroke="white"/>
<path opacity="0.2" fill-rule="evenodd" clip-rule="evenodd" d="M12.0103 -87.8416C23.5321 -80.3826 25.5676 -64.8017 30.39 -51.8567C34.8786 -39.8107 39.4204 -28.082 39.056 -15.24C38.6326 -0.119013 40.09 18.5343 28.1566 27.5793C16.1424 36.6863 -0.852838 25.813 -15.8923 26.406C-29.5028 26.942 -44.1985 38.6502 -55.4929 30.8762C-66.9074 23.0192 -61.4773 4.58639 -66.4849 -8.42361C-71.1025 -20.4236 -84.7111 -29.1546 -83.5214 -41.9446C-82.3151 -54.9236 -70.3255 -63.6448 -60.5654 -72.1038C-51.0368 -80.3618 -40.5638 -87.158 -28.2777 -89.824C-14.8179 -92.74 0.373216 -95.3716 12.0103 -87.8416Z" stroke="white"/>
<path opacity="0.2" fill-rule="evenodd" clip-rule="evenodd" d="M16.6023 -97.5646C29.939 -88.9366 32.2936 -70.9079 37.8733 -55.9299C43.068 -41.9919 48.3257 -28.4197 47.9111 -13.5627C47.4187 3.93233 49.1115 25.512 35.306 35.972C21.401 46.508 1.73813 33.9252 -15.6648 34.6112C-31.4132 35.2282 -48.4163 48.7742 -61.4862 39.7772C-74.6949 30.6862 -68.4151 9.36095 -74.2114 -5.69305C-79.5568 -19.574 -95.3042 -29.6818 -93.9315 -44.4758C-92.537 -59.4948 -78.6675 -69.5759 -67.3732 -79.3669C-56.3437 -88.9189 -44.231 -96.781 -30.0149 -99.861C-14.4427 -103.237 3.13453 -106.28 16.6023 -97.5646Z" stroke="white"/>
<path opacity="0.2" fill-rule="evenodd" clip-rule="evenodd" d="M21.0662 -107.021C36.1647 -97.2511 38.8315 -76.8452 45.1527 -59.8912C51.0358 -44.1152 56.9887 -28.7521 56.521 -11.9341C55.9695 7.86586 57.8829 32.2932 42.2575 44.1332C26.5169 56.0562 4.25716 41.8099 -15.4432 42.5829C-33.2676 43.2829 -52.5169 58.6112 -67.3131 48.4272C-82.2669 38.1342 -75.1598 13.9969 -81.7233 -3.04205C-87.7757 -18.7531 -105.603 -30.196 -104.051 -46.942C-102.475 -63.942 -86.7751 -75.3527 -73.9908 -86.4297C-61.5118 -97.2417 -47.7959 -106.139 -31.7028 -109.624C-14.0773 -113.442 5.81997 -116.886 21.0662 -107.021Z" stroke="white"/>
<path opacity="0.2" fill-rule="evenodd" clip-rule="evenodd" d="M25.1481 -115.666C41.8577 -104.856 44.8101 -82.2758 51.8069 -63.5178C58.3172 -46.0598 64.9043 -29.0619 64.3893 -10.4519C63.7807 11.4581 65.8999 38.4892 48.6093 51.5882C31.1907 64.7822 6.55957 49.0174 -15.2443 49.8714C-34.9722 50.6414 -56.2689 67.6043 -72.6437 56.3323C-89.1878 44.9403 -81.3293 18.2322 -88.597 -0.61982C-95.2934 -18.0078 -115.025 -30.6699 -113.308 -49.1999C-111.565 -68.0089 -94.1924 -80.6368 -80.0452 -92.8928C-66.2367 -104.855 -51.0584 -114.693 -33.2508 -118.553C-13.7435 -122.774 8.27209 -126.582 25.1481 -115.666Z" stroke="white"/>
<path opacity="0.2" fill-rule="evenodd" clip-rule="evenodd" d="M29.485 -124.849C47.9062 -112.93 51.1618 -88.0429 58.8765 -67.3619C66.0555 -48.1159 73.3192 -29.3789 72.75 -8.86189C72.0813 15.2861 74.4241 45.082 55.3579 59.52C36.1549 74.062 9.00179 56.6841 -15.0306 57.6201C-36.7783 58.4711 -60.2533 77.1652 -78.3061 64.7392C-96.55 52.1812 -87.884 22.7389 -95.8931 1.96088C-103.279 -17.2041 -125.029 -31.1629 -123.137 -51.5889C-121.217 -72.3229 -102.063 -86.241 -86.4718 -99.751C-71.2502 -112.937 -54.5189 -123.786 -34.8885 -128.034C-13.387 -132.687 10.8847 -136.885 29.485 -124.849Z" stroke="white"/>
<path opacity="0.2" fill-rule="evenodd" clip-rule="evenodd" d="M34.2021 -134.843C54.4884 -121.717 58.073 -94.3178 66.5676 -71.5428C74.4724 -50.3558 82.4717 -29.7249 81.8473 -7.14288C81.1117 19.4461 83.6879 52.2512 62.7014 68.1462C41.5623 84.1562 11.6597 65.0224 -14.8001 66.0534C-38.7458 66.9864 -64.5931 87.5694 -84.4698 73.8864C-104.559 60.0604 -95.0177 27.6503 -103.837 4.7663C-111.97 -16.3337 -135.919 -31.7076 -133.837 -54.1946C-131.724 -77.0196 -110.639 -92.3436 -93.4696 -107.216C-76.7108 -121.733 -58.2896 -133.675 -36.6749 -138.353C-13.0029 -143.476 13.7189 -148.099 34.2021 -134.843Z" stroke="white"/>
</g>
</g>
<path d="M38.5157 35V22.6364H40.0129V33.6719H45.76V35H38.5157ZM51.7728 35.1932C50.8794 35.1932 50.1086 34.996 49.4607 34.6016C48.8167 34.2031 48.3197 33.6477 47.9695 32.9354C47.6234 32.219 47.4504 31.3859 47.4504 30.4361C47.4504 29.4863 47.6234 28.6491 47.9695 27.9247C48.3197 27.1963 48.8067 26.6288 49.4305 26.2223C50.0583 25.8118 50.7908 25.6065 51.6279 25.6065C52.1109 25.6065 52.5878 25.687 53.0587 25.848C53.5296 26.009 53.9582 26.2706 54.3445 26.6328C54.7309 26.991 55.0388 27.4659 55.2682 28.0575C55.4976 28.6491 55.6123 29.3776 55.6123 30.2429V30.8466H48.4646V29.6151H54.1634C54.1634 29.0919 54.0588 28.625 53.8495 28.2145C53.6443 27.804 53.3505 27.48 52.9681 27.2425C52.5898 27.0051 52.1431 26.8864 51.6279 26.8864C51.0605 26.8864 50.5695 27.0272 50.1549 27.3089C49.7444 27.5866 49.4285 27.9489 49.2071 28.3956C48.9858 28.8423 48.8751 29.3213 48.8751 29.8324V30.6534C48.8751 31.3537 48.9958 31.9473 49.2373 32.4343C49.4828 32.9173 49.8229 33.2855 50.2575 33.5391C50.6922 33.7886 51.1973 33.9134 51.7728 33.9134C52.1471 33.9134 52.4852 33.861 52.787 33.7564C53.0929 33.6477 53.3565 33.4867 53.5779 33.2734C53.7992 33.0561 53.9703 32.7865 54.091 32.4645L55.4674 32.8509C55.3225 33.3177 55.079 33.7282 54.7369 34.0824C54.3949 34.4325 53.9723 34.7062 53.4692 34.9034C52.9661 35.0966 52.4007 35.1932 51.7728 35.1932ZM60.5083 35.2173C59.9207 35.2173 59.3874 35.1067 58.9085 34.8853C58.4295 34.6599 58.0492 34.3359 57.7675 33.9134C57.4858 33.4867 57.3449 32.9716 57.3449 32.3679C57.3449 31.8366 57.4495 31.406 57.6588 31.076C57.8681 30.742 58.1478 30.4804 58.498 30.2912C58.8481 30.102 59.2345 29.9612 59.657 29.8686C60.0837 29.772 60.5123 29.6955 60.9429 29.6392C61.5064 29.5668 61.9632 29.5124 62.3133 29.4762C62.6675 29.436 62.925 29.3696 63.086 29.277C63.251 29.1844 63.3335 29.0234 63.3335 28.794V28.7457C63.3335 28.1501 63.1705 27.6873 62.8445 27.3572C62.5226 27.0272 62.0336 26.8622 61.3776 26.8622C60.6974 26.8622 60.1642 27.0111 59.7778 27.3089C59.3914 27.6068 59.1198 27.9247 58.9628 28.2628L57.6105 27.7798C57.852 27.2164 58.174 26.7777 58.5764 26.4638C58.9829 26.1458 59.4256 25.9245 59.9046 25.7997C60.3875 25.6709 60.8624 25.6065 61.3293 25.6065C61.6271 25.6065 61.9692 25.6428 62.3556 25.7152C62.7459 25.7836 63.1222 25.9265 63.4845 26.1438C63.8507 26.3612 64.1546 26.6892 64.396 27.1278C64.6375 27.5665 64.7583 28.1541 64.7583 28.8906V35H63.3335V33.7443H63.2611C63.1645 33.9455 63.0035 34.1609 62.7781 34.3903C62.5528 34.6197 62.2529 34.8149 61.8786 34.9759C61.5044 35.1368 61.0476 35.2173 60.5083 35.2173ZM60.7256 33.9375C61.289 33.9375 61.7639 33.8268 62.1503 33.6055C62.5407 33.3841 62.8345 33.0984 63.0317 32.7482C63.2329 32.3981 63.3335 32.0298 63.3335 31.6435V30.3395C63.2732 30.4119 63.1404 30.4783 62.9351 30.5387C62.7339 30.5951 62.5004 30.6454 62.2348 30.6896C61.9732 30.7299 61.7177 30.7661 61.4681 30.7983C61.2226 30.8265 61.0234 30.8506 60.8705 30.8707C60.5002 30.919 60.1541 30.9975 59.8321 31.1062C59.5142 31.2108 59.2566 31.3698 59.0594 31.5831C58.8662 31.7924 58.7696 32.0781 58.7696 32.4403C58.7696 32.9354 58.9527 33.3097 59.319 33.5632C59.6892 33.8127 60.1581 33.9375 60.7256 33.9375ZM67.3587 35V25.7273H68.7351V27.1278H68.8317C69.0007 26.669 69.3066 26.2968 69.7493 26.011C70.192 25.7253 70.6911 25.5824 71.2464 25.5824C71.3511 25.5824 71.4819 25.5844 71.6388 25.5884C71.7958 25.5924 71.9145 25.5985 71.995 25.6065V27.0554C71.9467 27.0433 71.8361 27.0252 71.663 27.0011C71.494 26.9729 71.3149 26.9588 71.1257 26.9588C70.675 26.9588 70.2725 27.0534 69.9183 27.2425C69.5682 27.4277 69.2905 27.6853 69.0852 28.0153C68.884 28.3413 68.7834 28.7135 68.7834 29.1321V35H67.3587ZM75.1086 29.4219V35H73.6839V25.7273H75.0603V27.1761H75.181C75.3983 26.7053 75.7284 26.3269 76.1711 26.0412C76.6138 25.7514 77.1853 25.6065 77.8856 25.6065C78.5134 25.6065 79.0628 25.7353 79.5336 25.9929C80.0045 26.2464 80.3708 26.6328 80.6324 27.152C80.894 27.6671 81.0248 28.3191 81.0248 29.108V35H79.6001V29.2045C79.6001 28.4761 79.4109 27.9086 79.0326 27.5021C78.6543 27.0916 78.1351 26.8864 77.4751 26.8864C77.0203 26.8864 76.6138 26.985 76.2556 27.1822C75.9014 27.3794 75.6217 27.6671 75.4165 28.0455C75.2112 28.4238 75.1086 28.8826 75.1086 29.4219ZM91.1381 35.2173C90.5505 35.2173 90.0173 35.1067 89.5384 34.8853C89.0594 34.6599 88.6791 34.3359 88.3974 33.9134C88.1156 33.4867 87.9748 32.9716 87.9748 32.3679C87.9748 31.8366 88.0794 31.406 88.2887 31.076C88.498 30.742 88.7777 30.4804 89.1278 30.2912C89.478 30.102 89.8643 29.9612 90.2869 29.8686C90.7135 29.772 91.1422 29.6955 91.5728 29.6392C92.1362 29.5668 92.593 29.5124 92.9432 29.4762C93.2973 29.436 93.5549 29.3696 93.7159 29.277C93.8809 29.1844 93.9634 29.0234 93.9634 28.794V28.7457C93.9634 28.1501 93.8004 27.6873 93.4744 27.3572C93.1525 27.0272 92.6635 26.8622 92.0075 26.8622C91.3273 26.8622 90.794 27.0111 90.4077 27.3089C90.0213 27.6068 89.7496 27.9247 89.5927 28.2628L88.2404 27.7798C88.4819 27.2164 88.8039 26.7777 89.2063 26.4638C89.6128 26.1458 90.0555 25.9245 90.5344 25.7997C91.0174 25.6709 91.4923 25.6065 91.9592 25.6065C92.257 25.6065 92.5991 25.6428 92.9854 25.7152C93.3758 25.7836 93.7521 25.9265 94.1143 26.1438C94.4806 26.3612 94.7844 26.6892 95.0259 27.1278C95.2674 27.5665 95.3881 28.1541 95.3881 28.8906V35H93.9634V33.7443H93.891C93.7944 33.9455 93.6334 34.1609 93.408 34.3903C93.1826 34.6197 92.8828 34.8149 92.5085 34.9759C92.1342 35.1368 91.6774 35.2173 91.1381 35.2173ZM91.3555 33.9375C91.9189 33.9375 92.3938 33.8268 92.7802 33.6055C93.1706 33.3841 93.4644 33.0984 93.6616 32.7482C93.8628 32.3981 93.9634 32.0298 93.9634 31.6435V30.3395C93.9031 30.4119 93.7702 30.4783 93.565 30.5387C93.3638 30.5951 93.1303 30.6454 92.8647 30.6896C92.6031 30.7299 92.3475 30.7661 92.098 30.7983C91.8525 30.8265 91.6533 30.8506 91.5004 30.8707C91.1301 30.919 90.784 30.9975 90.462 31.1062C90.1441 31.2108 89.8865 31.3698 89.6893 31.5831C89.4961 31.7924 89.3995 32.0781 89.3995 32.4403C89.3995 32.9354 89.5826 33.3097 89.9489 33.5632C90.3191 33.8127 90.788 33.9375 91.3555 33.9375ZM98.1817 35V22.6364H99.6064V27.2003H99.7272C99.8318 27.0393 99.9767 26.834 100.162 26.5845C100.351 26.331 100.621 26.1056 100.971 25.9084C101.325 25.7071 101.804 25.6065 102.408 25.6065C103.188 25.6065 103.877 25.8017 104.472 26.1921C105.068 26.5825 105.533 27.1359 105.867 27.8523C106.201 28.5687 106.368 29.4138 106.368 30.3878C106.368 31.3698 106.201 32.221 105.867 32.9414C105.533 33.6578 105.07 34.2132 104.478 34.6076C103.887 34.998 103.204 35.1932 102.432 35.1932C101.836 35.1932 101.359 35.0946 101.001 34.8974C100.643 34.6961 100.367 34.4687 100.174 34.2152C99.9807 33.9576 99.8318 33.7443 99.7272 33.5753H99.5581V35H98.1817ZM99.5823 30.3636C99.5823 31.0639 99.6849 31.6817 99.8902 32.217C100.095 32.7482 100.395 33.1648 100.79 33.4666C101.184 33.7644 101.667 33.9134 102.239 33.9134C102.834 33.9134 103.331 33.7564 103.73 33.4425C104.132 33.1245 104.434 32.6979 104.635 32.1626C104.84 31.6233 104.943 31.0237 104.943 30.3636C104.943 29.7116 104.842 29.1241 104.641 28.6009C104.444 28.0736 104.144 27.6571 103.742 27.3512C103.343 27.0413 102.842 26.8864 102.239 26.8864C101.659 26.8864 101.172 27.0333 100.778 27.3271C100.383 27.6168 100.085 28.0233 99.8841 28.5465C99.6829 29.0657 99.5823 29.6714 99.5823 30.3636ZM112.314 35.1932C111.477 35.1932 110.743 34.994 110.111 34.5955C109.483 34.1971 108.992 33.6397 108.638 32.9233C108.288 32.2069 108.112 31.3698 108.112 30.4119C108.112 29.446 108.288 28.6029 108.638 27.8825C108.992 27.162 109.483 26.6026 110.111 26.2042C110.743 25.8058 111.477 25.6065 112.314 25.6065C113.151 25.6065 113.884 25.8058 114.512 26.2042C115.143 26.6026 115.634 27.162 115.985 27.8825C116.339 28.6029 116.516 29.446 116.516 30.4119C116.516 31.3698 116.339 32.2069 115.985 32.9233C115.634 33.6397 115.143 34.1971 114.512 34.5955C113.884 34.994 113.151 35.1932 112.314 35.1932ZM112.314 33.9134C112.95 33.9134 113.473 33.7504 113.884 33.4244C114.294 33.0984 114.598 32.6697 114.795 32.1385C114.993 31.6072 115.091 31.0317 115.091 30.4119C115.091 29.7921 114.993 29.2146 114.795 28.6793C114.598 28.1441 114.294 27.7114 113.884 27.3814C113.473 27.0514 112.95 26.8864 112.314 26.8864C111.678 26.8864 111.155 27.0514 110.745 27.3814C110.334 27.7114 110.03 28.1441 109.833 28.6793C109.636 29.2146 109.537 29.7921 109.537 30.4119C109.537 31.0317 109.636 31.6072 109.833 32.1385C110.03 32.6697 110.334 33.0984 110.745 33.4244C111.155 33.7504 111.678 33.9134 112.314 33.9134ZM124.534 31.2088V25.7273H125.959V35H124.534V33.4304H124.438C124.221 33.9013 123.882 34.3017 123.424 34.6317C122.965 34.9577 122.385 35.1207 121.685 35.1207C121.105 35.1207 120.59 34.994 120.14 34.7404C119.689 34.4828 119.335 34.0965 119.077 33.5813C118.819 33.0621 118.691 32.4081 118.691 31.6193V25.7273H120.115V31.5227C120.115 32.1989 120.305 32.7382 120.683 33.1406C121.065 33.5431 121.552 33.7443 122.144 33.7443C122.498 33.7443 122.858 33.6538 123.224 33.4727C123.595 33.2915 123.905 33.0138 124.154 32.6396C124.408 32.2653 124.534 31.7884 124.534 31.2088ZM132.601 25.7273V26.9347H127.796V25.7273H132.601ZM129.196 23.5057H130.621V32.3438C130.621 32.7462 130.68 33.0481 130.796 33.2493C130.917 33.4465 131.07 33.5793 131.255 33.6477C131.444 33.7121 131.643 33.7443 131.853 33.7443C132.01 33.7443 132.138 33.7363 132.239 33.7202C132.34 33.7 132.42 33.6839 132.481 33.6719L132.77 34.9517C132.674 34.9879 132.539 35.0241 132.366 35.0604C132.193 35.1006 131.973 35.1207 131.708 35.1207C131.305 35.1207 130.911 35.0342 130.525 34.8612C130.142 34.6881 129.824 34.4245 129.571 34.0703C129.321 33.7161 129.196 33.2694 129.196 32.7301V23.5057ZM145.369 31.2088V25.7273H146.794V35H145.369V33.4304H145.273C145.055 33.9013 144.717 34.3017 144.259 34.6317C143.8 34.9577 143.22 35.1207 142.52 35.1207C141.94 35.1207 141.425 34.994 140.975 34.7404C140.524 34.4828 140.17 34.0965 139.912 33.5813C139.654 33.0621 139.526 32.4081 139.526 31.6193V25.7273H140.95V31.5227C140.95 32.1989 141.14 32.7382 141.518 33.1406C141.9 33.5431 142.387 33.7443 142.979 33.7443C143.333 33.7443 143.693 33.6538 144.059 33.4727C144.43 33.2915 144.74 33.0138 144.989 32.6396C145.243 32.2653 145.369 31.7884 145.369 31.2088ZM155.972 27.804L154.692 28.1662C154.611 27.9529 154.493 27.7456 154.336 27.5444C154.183 27.3391 153.974 27.1701 153.708 27.0373C153.442 26.9045 153.102 26.8381 152.688 26.8381C152.12 26.8381 151.647 26.9689 151.269 27.2305C150.895 27.488 150.708 27.8161 150.708 28.2145C150.708 28.5687 150.836 28.8484 151.094 29.0536C151.352 29.2589 151.754 29.4299 152.301 29.5668L153.678 29.9048C154.507 30.1061 155.125 30.4139 155.531 30.8285C155.938 31.239 156.141 31.7682 156.141 32.4162C156.141 32.9474 155.988 33.4223 155.682 33.8409C155.38 34.2595 154.958 34.5895 154.414 34.831C153.871 35.0724 153.239 35.1932 152.519 35.1932C151.573 35.1932 150.79 34.9879 150.17 34.5774C149.55 34.1669 149.158 33.5672 148.993 32.7784L150.345 32.4403C150.474 32.9394 150.718 33.3137 151.076 33.5632C151.438 33.8127 151.911 33.9375 152.494 33.9375C153.159 33.9375 153.686 33.7966 154.076 33.5149C154.471 33.2292 154.668 32.8871 154.668 32.4886C154.668 32.1667 154.555 31.897 154.33 31.6797C154.104 31.4583 153.758 31.2933 153.291 31.1847L151.746 30.8224C150.897 30.6212 150.273 30.3093 149.874 29.8867C149.48 29.4601 149.283 28.9268 149.283 28.2869C149.283 27.7637 149.43 27.3009 149.724 26.8984C150.021 26.496 150.426 26.18 150.937 25.9506C151.452 25.7212 152.036 25.6065 152.688 25.6065C153.605 25.6065 154.326 25.8078 154.849 26.2102C155.376 26.6127 155.75 27.1439 155.972 27.804Z" fill="white"/>
<defs>
<clipPath id="clip0_2_1040">
<path d="M0 6C0 2.68629 2.68629 0 6 0H188C191.314 0 194 2.68629 194 6V54C194 57.3137 191.314 60 188 60H6C2.68629 60 0 57.3137 0 54V6Z" fill="white"/>
</clipPath>
</defs>
</svg>
