<svg width="193" height="60" viewBox="0 0 193 60" fill="none" xmlns="http://www.w3.org/2000/svg">
<g clip-path="url(#clip0_2_1001)">
<path d="M0 6C0 2.68629 2.68629 0 6 0H187C190.314 0 193 2.68629 193 6V54C193 57.3137 190.314 60 187 60H5.99999C2.68629 60 0 57.3137 0 54V6Z" fill="#35B8BE"/>
<g opacity="0.2">
<path opacity="0.2" fill-rule="evenodd" clip-rule="evenodd" d="M-2.51684 -57.0479C3.24083 -53.3019 4.24992 -45.4661 6.65507 -38.9561C8.89269 -32.9001 11.1617 -27.001 10.9716 -20.543C10.7522 -12.935 11.4722 -3.55403 5.50394 0.998966C-0.507473 5.58697 -8.99553 0.126048 -16.5147 0.433048C-23.3177 0.709048 -30.6694 6.60511 -36.3114 2.70111C-42.0133 -1.24689 -39.2907 -10.521 -41.7879 -17.063C-44.0912 -23.096 -50.8893 -27.4821 -50.2887 -33.9161C-49.6793 -40.4461 -43.6836 -44.8352 -38.7998 -49.0972C-34.0326 -53.2552 -28.7942 -56.679 -22.6525 -58.024C-15.9249 -59.499 -8.33035 -60.8289 -2.51684 -57.0479Z" stroke="white"/>
<path opacity="0.2" fill-rule="evenodd" clip-rule="evenodd" d="M1.03655 -64.613C8.19617 -59.955 9.45311 -50.2132 12.4461 -42.1272C15.2314 -34.5972 18.0499 -27.268 17.8217 -19.239C17.5523 -9.78802 18.4516 1.86908 11.0333 7.52708C3.56121 13.2271 -6.99303 6.43482 -16.3403 6.80882C-24.798 7.15082 -33.9347 14.4749 -40.9513 9.61986C-48.0423 4.71286 -44.6614 -6.81215 -47.7689 -14.9422C-50.6346 -22.4422 -59.0883 -27.895 -58.3496 -35.888C-57.5953 -44.001 -50.1428 -49.4548 -44.0736 -54.7478C-38.1493 -59.9128 -31.6383 -64.1662 -24.0025 -65.8352C-15.635 -67.6662 -6.1936 -69.317 1.03655 -64.613Z" stroke="white"/>
<path opacity="0.2" fill-rule="evenodd" clip-rule="evenodd" d="M4.34005 -71.6342C12.8017 -66.1342 14.2908 -54.6263 17.8295 -45.0673C21.1222 -36.1733 24.4552 -27.5132 24.1867 -18.0312C23.8713 -6.86615 24.9372 6.90898 16.1728 13.588C7.34478 20.318 -5.12971 12.2929 -16.1738 12.7359C-26.1667 13.1359 -36.962 21.784 -45.2541 16.045C-53.6344 10.245 -49.6421 -3.36512 -53.317 -12.9701C-56.7048 -21.8291 -66.6957 -28.2762 -65.8199 -37.7182C-64.9313 -47.3052 -56.1258 -53.746 -48.9554 -59.995C-41.9564 -66.095 -34.26 -71.1173 -25.2419 -73.0883C-15.3646 -75.2443 -4.20877 -77.1912 4.34005 -71.6342Z" stroke="white"/>
<path opacity="0.2" fill-rule="evenodd" clip-rule="evenodd" d="M7.76116 -78.9271C17.5738 -72.5451 19.3029 -59.2058 23.4088 -48.1268C27.2297 -37.8158 31.0945 -27.7736 30.7859 -16.7786C30.4244 -3.83161 31.6677 12.1371 21.5004 19.8801C11.2645 27.6801 -3.2036 18.3731 -16.0112 18.8801C-27.601 19.3401 -40.1166 29.3681 -49.7333 22.7121C-59.4519 15.9871 -54.8277 0.206046 -59.0884 -10.931C-63.0189 -21.202 -74.6068 -28.6787 -73.5879 -39.6307C-72.5592 -50.7427 -62.3488 -58.2109 -54.0351 -65.4549C-45.9193 -72.5249 -37.0002 -78.3467 -26.538 -80.6287C-15.0844 -83.1167 -2.14845 -85.3741 7.76116 -78.9271Z" stroke="white"/>
<path opacity="0.2" fill-rule="evenodd" clip-rule="evenodd" d="M11.9484 -87.8416C23.4108 -80.3826 25.4358 -64.8017 30.2334 -51.8567C34.6988 -39.8107 39.2172 -28.082 38.8547 -15.24C38.4334 -0.119013 39.8834 18.5343 28.0114 27.5793C16.0592 36.6863 -0.84844 25.813 -15.8103 26.406C-29.3507 26.942 -43.9707 38.6502 -55.2068 30.8762C-66.5625 23.0192 -61.1605 4.58639 -66.1422 -8.42361C-70.736 -20.4236 -84.2744 -29.1546 -83.0909 -41.9446C-81.8908 -54.9236 -69.963 -63.6448 -60.2532 -72.1038C-50.7737 -80.3618 -40.3547 -87.158 -28.132 -89.824C-14.7415 -92.74 0.371295 -95.3716 11.9484 -87.8416Z" stroke="white"/>
<path opacity="0.2" fill-rule="evenodd" clip-rule="evenodd" d="M16.5167 -97.5646C29.7847 -88.9366 32.1272 -70.9079 37.6781 -55.9299C42.846 -41.9919 48.0766 -28.4197 47.6641 -13.5627C47.1743 3.93233 48.8584 25.512 35.124 35.972C21.2907 46.508 1.72917 33.9252 -15.584 34.6112C-31.2513 35.2282 -48.1667 48.7742 -61.1692 39.7772C-74.3099 30.6862 -68.0624 9.36095 -73.8289 -5.69305C-79.1467 -19.574 -94.813 -29.6818 -93.4473 -44.4758C-92.06 -59.4948 -78.262 -69.5759 -67.0259 -79.3669C-56.0533 -88.9189 -44.003 -96.781 -29.8602 -99.861C-14.3682 -103.237 3.11837 -106.28 16.5167 -97.5646Z" stroke="white"/>
<path opacity="0.2" fill-rule="evenodd" clip-rule="evenodd" d="M20.9576 -107.021C35.9783 -97.2511 38.6313 -76.8452 44.92 -59.8912C50.7727 -44.1152 56.695 -28.7521 56.2296 -11.9341C55.681 7.86586 57.5845 32.2932 42.0397 44.1332C26.3803 56.0562 4.23522 41.8099 -15.3636 42.5829C-33.0961 43.2829 -52.2462 58.6112 -66.9661 48.4272C-81.8428 38.1342 -74.7723 13.9969 -81.302 -3.04205C-87.3232 -18.7531 -105.059 -30.196 -103.515 -46.942C-101.947 -63.942 -86.3278 -75.3527 -73.6094 -86.4297C-61.1947 -97.2417 -47.5495 -106.139 -31.5394 -109.624C-14.0048 -113.442 5.78998 -116.886 20.9576 -107.021Z" stroke="white"/>
<path opacity="0.2" fill-rule="evenodd" clip-rule="evenodd" d="M25.0185 -115.666C41.642 -104.856 44.5791 -82.2758 51.5398 -63.5178C58.0166 -46.0598 64.5698 -29.0619 64.0574 -10.4519C63.4519 11.4581 65.5602 38.4892 48.3587 51.5882C31.0299 64.7822 6.52575 49.0174 -15.1657 49.8714C-34.7919 50.6414 -55.9788 67.6043 -72.2692 56.3323C-88.7281 44.9403 -80.9101 18.2322 -88.1403 -0.61982C-94.8022 -18.0078 -114.432 -30.6699 -112.724 -49.1999C-110.99 -68.0089 -93.7069 -80.6368 -79.6326 -92.8928C-65.8953 -104.855 -50.7953 -114.693 -33.0794 -118.553C-13.6726 -122.774 8.22944 -126.582 25.0185 -115.666Z" stroke="white"/>
<path opacity="0.2" fill-rule="evenodd" clip-rule="evenodd" d="M29.333 -124.849C47.6592 -112.93 50.8981 -88.0429 58.573 -67.3619C65.715 -48.1159 72.9413 -29.3789 72.375 -8.86189C71.7098 15.2861 74.0405 45.082 55.0726 59.52C35.9685 74.062 8.9554 56.6841 -14.9531 57.6201C-36.5887 58.4711 -59.9427 77.1652 -77.9025 64.7392C-96.0523 52.1812 -87.431 22.7389 -95.3988 1.96088C-102.747 -17.2041 -124.384 -31.1629 -122.502 -51.5889C-120.592 -72.3229 -101.537 -86.241 -86.0261 -99.751C-70.8829 -112.937 -54.2379 -123.786 -34.7087 -128.034C-13.318 -132.687 10.8286 -136.885 29.333 -124.849Z" stroke="white"/>
<path opacity="0.2" fill-rule="evenodd" clip-rule="evenodd" d="M34.0258 -134.843C54.2075 -121.717 57.7736 -94.3178 66.2245 -71.5428C74.0885 -50.3558 82.0465 -29.7249 81.4254 -7.14288C80.6936 19.4461 83.2565 52.2512 62.3782 68.1462C41.348 84.1562 11.5996 65.0224 -14.7239 66.0534C-38.5461 66.9864 -64.2602 87.5694 -84.0344 73.8864C-104.02 60.0604 -94.5279 27.6503 -103.302 4.7663C-111.393 -16.3337 -135.219 -31.7076 -133.147 -54.1946C-131.045 -77.0196 -110.069 -92.3436 -92.9878 -107.216C-76.3154 -121.733 -57.9892 -133.675 -36.4858 -138.353C-12.9359 -143.476 13.6481 -148.099 34.0258 -134.843Z" stroke="white"/>
</g>
</g>
<path d="M38.6715 35V22.6364H42.849C43.819 22.6364 44.6118 22.8114 45.2276 23.1616C45.8474 23.5077 46.3062 23.9766 46.604 24.5682C46.9018 25.1598 47.0507 25.8198 47.0507 26.5483C47.0507 27.2768 46.9018 27.9388 46.604 28.5344C46.3102 29.1301 45.8554 29.605 45.2397 29.9592C44.6239 30.3093 43.8351 30.4844 42.8732 30.4844H39.8789V29.1562H42.8249C43.4889 29.1562 44.0222 29.0415 44.4247 28.8121C44.8271 28.5827 45.1189 28.2728 45.3 27.8825C45.4852 27.488 45.5777 27.0433 45.5777 26.5483C45.5777 26.0533 45.4852 25.6106 45.3 25.2202C45.1189 24.8298 44.8251 24.5239 44.4186 24.3026C44.0121 24.0772 43.4728 23.9645 42.8007 23.9645H40.1686V35H38.6715ZM50.694 22.6364V35H49.2693V22.6364H50.694ZM56.0322 35.2173C55.4446 35.2173 54.9113 35.1067 54.4324 34.8853C53.9535 34.6599 53.5731 34.3359 53.2914 33.9134C53.0097 33.4867 52.8688 32.9716 52.8688 32.3679C52.8688 31.8366 52.9735 31.406 53.1828 31.076C53.392 30.742 53.6717 30.4804 54.0219 30.2912C54.372 30.102 54.7584 29.9612 55.181 29.8686C55.6076 29.772 56.0362 29.6955 56.4668 29.6392C57.0303 29.5668 57.4871 29.5124 57.8372 29.4762C58.1914 29.436 58.449 29.3696 58.61 29.277C58.775 29.1844 58.8575 29.0234 58.8575 28.794V28.7457C58.8575 28.1501 58.6945 27.6873 58.3685 27.3572C58.0465 27.0272 57.5575 26.8622 56.9015 26.8622C56.2213 26.8622 55.6881 27.0111 55.3017 27.3089C54.9153 27.6068 54.6437 27.9247 54.4867 28.2628L53.1345 27.7798C53.3759 27.2164 53.6979 26.7777 54.1004 26.4638C54.5069 26.1458 54.9496 25.9245 55.4285 25.7997C55.9114 25.6709 56.3863 25.6065 56.8532 25.6065C57.151 25.6065 57.4931 25.6428 57.8795 25.7152C58.2699 25.7836 58.6462 25.9265 59.0084 26.1438C59.3746 26.3612 59.6785 26.6892 59.92 27.1278C60.1614 27.5665 60.2822 28.1541 60.2822 28.8906V35H58.8575V33.7443H58.785C58.6884 33.9455 58.5274 34.1609 58.3021 34.3903C58.0767 34.6197 57.7769 34.8149 57.4026 34.9759C57.0283 35.1368 56.5715 35.2173 56.0322 35.2173ZM56.2495 33.9375C56.813 33.9375 57.2879 33.8268 57.6742 33.6055C58.0646 33.3841 58.3584 33.0984 58.5556 32.7482C58.7569 32.3981 58.8575 32.0298 58.8575 31.6435V30.3395C58.7971 30.4119 58.6643 30.4783 58.459 30.5387C58.2578 30.5951 58.0244 30.6454 57.7587 30.6896C57.4971 30.7299 57.2416 30.7661 56.9921 30.7983C56.7466 30.8265 56.5473 30.8506 56.3944 30.8707C56.0241 30.919 55.678 30.9975 55.356 31.1062C55.0381 31.2108 54.7805 31.3698 54.5833 31.5831C54.3901 31.7924 54.2935 32.0781 54.2935 32.4403C54.2935 32.9354 54.4767 33.3097 54.8429 33.5632C55.2132 33.8127 55.682 33.9375 56.2495 33.9375ZM66.6496 35.1932C65.7803 35.1932 65.0317 34.9879 64.4039 34.5774C63.7761 34.1669 63.2931 33.6014 62.955 32.881C62.617 32.1606 62.4479 31.3376 62.4479 30.4119C62.4479 29.4702 62.621 28.6391 62.9671 27.9187C63.3172 27.1942 63.8042 26.6288 64.428 26.2223C65.0559 25.8118 65.7884 25.6065 66.6255 25.6065C67.2775 25.6065 67.8651 25.7273 68.3883 25.9688C68.9115 26.2102 69.3401 26.5483 69.6741 26.983C70.0082 27.4176 70.2155 27.9247 70.2959 28.5043H68.8712C68.7626 28.0817 68.5211 27.7074 68.1468 27.3814C67.7765 27.0514 67.2775 26.8864 66.6496 26.8864C66.0942 26.8864 65.6073 27.0312 65.1887 27.321C64.7742 27.6068 64.4502 28.0112 64.2168 28.5344C63.9873 29.0536 63.8726 29.6634 63.8726 30.3636C63.8726 31.08 63.9853 31.7038 64.2107 32.2351C64.4401 32.7663 64.7621 33.1789 65.1766 33.4727C65.5952 33.7665 66.0862 33.9134 66.6496 33.9134C67.0199 33.9134 67.356 33.849 67.6578 33.7202C67.9597 33.5914 68.2152 33.4062 68.4245 33.1648C68.6338 32.9233 68.7827 32.6335 68.8712 32.2955H70.2959C70.2155 32.8428 70.0162 33.3358 69.6983 33.7745C69.3844 34.2092 68.9678 34.5553 68.4486 34.8129C67.9335 35.0664 67.3338 35.1932 66.6496 35.1932ZM76.2665 35.1932C75.373 35.1932 74.6023 34.996 73.9543 34.6016C73.3104 34.2031 72.8133 33.6477 72.4632 32.9354C72.1171 32.219 71.944 31.3859 71.944 30.4361C71.944 29.4863 72.1171 28.6491 72.4632 27.9247C72.8133 27.1963 73.3003 26.6288 73.9241 26.2223C74.552 25.8118 75.2845 25.6065 76.1216 25.6065C76.6045 25.6065 77.0815 25.687 77.5523 25.848C78.0232 26.009 78.4518 26.2706 78.8382 26.6328C79.2246 26.991 79.5324 27.4659 79.7619 28.0575C79.9913 28.6491 80.106 29.3776 80.106 30.2429V30.8466H72.9582V29.6151H78.6571C78.6571 29.0919 78.5525 28.625 78.3432 28.2145C78.1379 27.804 77.8441 27.48 77.4618 27.2425C77.0835 27.0051 76.6367 26.8864 76.1216 26.8864C75.5541 26.8864 75.0631 27.0272 74.6486 27.3089C74.2381 27.5866 73.9221 27.9489 73.7008 28.3956C73.4794 28.8423 73.3687 29.3213 73.3687 29.8324V30.6534C73.3687 31.3537 73.4895 31.9473 73.731 32.4343C73.9765 32.9173 74.3165 33.2855 74.7512 33.5391C75.1859 33.7886 75.6909 33.9134 76.2665 33.9134C76.6408 33.9134 76.9788 33.861 77.2807 33.7564C77.5865 33.6477 77.8502 33.4867 78.0715 33.2734C78.2929 33.0561 78.4639 32.7865 78.5847 32.4645L79.9611 32.8509C79.8162 33.3177 79.5727 33.7282 79.2306 34.0824C78.8885 34.4325 78.4659 34.7062 77.9628 34.9034C77.4598 35.0966 76.8943 35.1932 76.2665 35.1932ZM89.7832 35.2173C89.1956 35.2173 88.6623 35.1067 88.1834 34.8853C87.7044 34.6599 87.3241 34.3359 87.0424 33.9134C86.7607 33.4867 86.6198 32.9716 86.6198 32.3679C86.6198 31.8366 86.7244 31.406 86.9337 31.076C87.143 30.742 87.4227 30.4804 87.7729 30.2912C88.123 30.102 88.5094 29.9612 88.932 29.8686C89.3586 29.772 89.7872 29.6955 90.2178 29.6392C90.7813 29.5668 91.2381 29.5124 91.5882 29.4762C91.9424 29.436 92.1999 29.3696 92.3609 29.277C92.5259 29.1844 92.6084 29.0234 92.6084 28.794V28.7457C92.6084 28.1501 92.4454 27.6873 92.1195 27.3572C91.7975 27.0272 91.3085 26.8622 90.6525 26.8622C89.9723 26.8622 89.4391 27.0111 89.0527 27.3089C88.6663 27.6068 88.3947 27.9247 88.2377 28.2628L86.8854 27.7798C87.1269 27.2164 87.4489 26.7777 87.8513 26.4638C88.2578 26.1458 88.7005 25.9245 89.1795 25.7997C89.6624 25.6709 90.1373 25.6065 90.6042 25.6065C90.902 25.6065 91.2441 25.6428 91.6305 25.7152C92.0208 25.7836 92.3972 25.9265 92.7594 26.1438C93.1256 26.3612 93.4295 26.6892 93.6709 27.1278C93.9124 27.5665 94.0332 28.1541 94.0332 28.8906V35H92.6084V33.7443H92.536C92.4394 33.9455 92.2784 34.1609 92.053 34.3903C91.8277 34.6197 91.5278 34.8149 91.1535 34.9759C90.7793 35.1368 90.3225 35.2173 89.7832 35.2173ZM90.0005 33.9375C90.5639 33.9375 91.0388 33.8268 91.4252 33.6055C91.8156 33.3841 92.1094 33.0984 92.3066 32.7482C92.5078 32.3981 92.6084 32.0298 92.6084 31.6435V30.3395C92.5481 30.4119 92.4153 30.4783 92.21 30.5387C92.0088 30.5951 91.7753 30.6454 91.5097 30.6896C91.2481 30.7299 90.9926 30.7661 90.743 30.7983C90.4975 30.8265 90.2983 30.8506 90.1454 30.8707C89.7751 30.919 89.429 30.9975 89.107 31.1062C88.7891 31.2108 88.5315 31.3698 88.3343 31.5831C88.1411 31.7924 88.0445 32.0781 88.0445 32.4403C88.0445 32.9354 88.2276 33.3097 88.5939 33.5632C88.9641 33.8127 89.433 33.9375 90.0005 33.9375ZM98.0583 29.4219V35H96.6336V25.7273H98.01V27.1761H98.1307C98.3481 26.7053 98.6781 26.3269 99.1208 26.0412C99.5635 25.7514 100.135 25.6065 100.835 25.6065C101.463 25.6065 102.012 25.7353 102.483 25.9929C102.954 26.2464 103.32 26.6328 103.582 27.152C103.844 27.6671 103.974 28.3191 103.974 29.108V35H102.55V29.2045C102.55 28.4761 102.361 27.9086 101.982 27.5021C101.604 27.0916 101.085 26.8864 100.425 26.8864C99.97 26.8864 99.5635 26.985 99.2053 27.1822C98.8511 27.3794 98.5714 27.6671 98.3662 28.0455C98.1609 28.4238 98.0583 28.8826 98.0583 29.4219ZM121.984 28.8182C121.984 30.1222 121.749 31.2491 121.278 32.1989C120.807 33.1487 120.161 33.8812 119.34 34.3963C118.519 34.9115 117.581 35.169 116.527 35.169C115.472 35.169 114.535 34.9115 113.714 34.3963C112.893 33.8812 112.247 33.1487 111.776 32.1989C111.305 31.2491 111.069 30.1222 111.069 28.8182C111.069 27.5142 111.305 26.3873 111.776 25.4375C112.247 24.4877 112.893 23.7552 113.714 23.2401C114.535 22.7249 115.472 22.4673 116.527 22.4673C117.581 22.4673 118.519 22.7249 119.34 23.2401C120.161 23.7552 120.807 24.4877 121.278 25.4375C121.749 26.3873 121.984 27.5142 121.984 28.8182ZM120.535 28.8182C120.535 27.7476 120.356 26.8441 119.998 26.1076C119.644 25.3711 119.163 24.8137 118.555 24.4354C117.951 24.0571 117.275 23.8679 116.527 23.8679C115.778 23.8679 115.1 24.0571 114.492 24.4354C113.889 24.8137 113.408 25.3711 113.049 26.1076C112.695 26.8441 112.518 27.7476 112.518 28.8182C112.518 29.8887 112.695 30.7923 113.049 31.5288C113.408 32.2653 113.889 32.8227 114.492 33.201C115.1 33.5793 115.778 33.7685 116.527 33.7685C117.275 33.7685 117.951 33.5793 118.555 33.201C119.163 32.8227 119.644 32.2653 119.998 31.5288C120.356 30.7923 120.535 29.8887 120.535 28.8182ZM124.308 35V25.7273H125.685V27.1278H125.781C125.95 26.669 126.256 26.2968 126.699 26.011C127.142 25.7253 127.641 25.5824 128.196 25.5824C128.301 25.5824 128.432 25.5844 128.589 25.5884C128.746 25.5924 128.864 25.5985 128.945 25.6065V27.0554C128.896 27.0433 128.786 27.0252 128.613 27.0011C128.444 26.9729 128.265 26.9588 128.075 26.9588C127.625 26.9588 127.222 27.0534 126.868 27.2425C126.518 27.4277 126.24 27.6853 126.035 28.0153C125.834 28.3413 125.733 28.7135 125.733 29.1321V35H124.308ZM133.853 35.1932C133.08 35.1932 132.398 34.998 131.806 34.6076C131.215 34.2132 130.752 33.6578 130.418 32.9414C130.084 32.221 129.917 31.3698 129.917 30.3878C129.917 29.4138 130.084 28.5687 130.418 27.8523C130.752 27.1359 131.217 26.5825 131.812 26.1921C132.408 25.8017 133.096 25.6065 133.877 25.6065C134.481 25.6065 134.958 25.7071 135.308 25.9084C135.662 26.1056 135.931 26.331 136.117 26.5845C136.306 26.834 136.453 27.0393 136.557 27.2003H136.678V22.6364H138.103V35H136.726V33.5753H136.557C136.453 33.7443 136.304 33.9576 136.111 34.2152C135.917 34.4687 135.642 34.6961 135.284 34.8974C134.925 35.0946 134.448 35.1932 133.853 35.1932ZM134.046 33.9134C134.617 33.9134 135.1 33.7644 135.495 33.4666C135.889 33.1648 136.189 32.7482 136.394 32.217C136.6 31.6817 136.702 31.0639 136.702 30.3636C136.702 29.6714 136.602 29.0657 136.4 28.5465C136.199 28.0233 135.901 27.6168 135.507 27.3271C135.112 27.0333 134.625 26.8864 134.046 26.8864C133.442 26.8864 132.939 27.0413 132.537 27.3512C132.138 27.6571 131.838 28.0736 131.637 28.6009C131.44 29.1241 131.341 29.7116 131.341 30.3636C131.341 31.0237 131.442 31.6233 131.643 32.1626C131.848 32.6979 132.15 33.1245 132.549 33.4425C132.951 33.7564 133.45 33.9134 134.046 33.9134ZM144.798 35.1932C143.904 35.1932 143.134 34.996 142.486 34.6016C141.842 34.2031 141.345 33.6477 140.994 32.9354C140.648 32.219 140.475 31.3859 140.475 30.4361C140.475 29.4863 140.648 28.6491 140.994 27.9247C141.345 27.1963 141.832 26.6288 142.455 26.2223C143.083 25.8118 143.816 25.6065 144.653 25.6065C145.136 25.6065 145.613 25.687 146.084 25.848C146.554 26.009 146.983 26.2706 147.369 26.6328C147.756 26.991 148.064 27.4659 148.293 28.0575C148.523 28.6491 148.637 29.3776 148.637 30.2429V30.8466H141.489V29.6151H147.188C147.188 29.0919 147.084 28.625 146.874 28.2145C146.669 27.804 146.375 27.48 145.993 27.2425C145.615 27.0051 145.168 26.8864 144.653 26.8864C144.085 26.8864 143.594 27.0272 143.18 27.3089C142.769 27.5866 142.453 27.9489 142.232 28.3956C142.011 28.8423 141.9 29.3213 141.9 29.8324V30.6534C141.9 31.3537 142.021 31.9473 142.262 32.4343C142.508 32.9173 142.848 33.2855 143.282 33.5391C143.717 33.7886 144.222 33.9134 144.798 33.9134C145.172 33.9134 145.51 33.861 145.812 33.7564C146.118 33.6477 146.381 33.4867 146.603 33.2734C146.824 33.0561 146.995 32.7865 147.116 32.4645L148.492 32.8509C148.347 33.3177 148.104 33.7282 147.762 34.0824C147.42 34.4325 146.997 34.7062 146.494 34.9034C145.991 35.0966 145.426 35.1932 144.798 35.1932ZM150.804 35V25.7273H152.181V27.1278H152.277C152.447 26.669 152.752 26.2968 153.195 26.011C153.638 25.7253 154.137 25.5824 154.692 25.5824C154.797 25.5824 154.928 25.5844 155.085 25.5884C155.242 25.5924 155.36 25.5985 155.441 25.6065V27.0554C155.393 27.0433 155.282 27.0252 155.109 27.0011C154.94 26.9729 154.761 26.9588 154.572 26.9588C154.121 26.9588 153.718 27.0534 153.364 27.2425C153.014 27.4277 152.736 27.6853 152.531 28.0153C152.33 28.3413 152.229 28.7135 152.229 29.1321V35H150.804Z" fill="white"/>
<defs>
<clipPath id="clip0_2_1001">
<path d="M0 6C0 2.68629 2.68629 0 6 0H187C190.314 0 193 2.68629 193 6V54C193 57.3137 190.314 60 187 60H5.99999C2.68629 60 0 57.3137 0 54V6Z" fill="white"/>
</clipPath>
</defs>
</svg>
