<svg width="186" height="60" viewBox="0 0 186 60" fill="none" xmlns="http://www.w3.org/2000/svg">
<g clip-path="url(#clip0_2_1197)">
<path d="M0 6C0 2.68629 2.68629 0 6 0H180C183.314 0 186 2.68629 186 6V54C186 57.3137 183.314 60 180 60H6.00001C2.6863 60 0 57.3137 0 54V6Z" fill="#35B8BE"/>
<g opacity="0.2">
<path opacity="0.2" fill-rule="evenodd" clip-rule="evenodd" d="M-2.42554 -57.048C3.12331 -53.302 4.09579 -45.4662 6.41371 -38.9562C8.57018 -32.9002 10.7569 -27.0011 10.5737 -20.5431C10.3622 -12.9351 11.0562 -3.55416 5.30433 0.998844C-0.489047 5.58684 -8.66925 0.125926 -15.9157 0.432926C-22.472 0.708926 -29.557 6.60499 -34.9944 2.70099C-40.4894 -1.24701 -37.8656 -10.5212 -40.2723 -17.0632C-42.492 -23.0962 -49.0435 -27.4822 -48.4648 -33.9162C-47.8775 -40.4462 -42.0992 -44.8353 -37.3926 -49.0973C-32.7983 -53.2553 -27.7498 -56.6791 -21.8309 -58.0241C-15.3473 -59.4991 -8.0282 -60.829 -2.42554 -57.048Z" stroke="white"/>
<path opacity="0.2" fill-rule="evenodd" clip-rule="evenodd" d="M0.998956 -64.6132C7.8989 -59.9552 9.11025 -50.2133 11.9947 -42.1273C14.6789 -34.5973 17.3953 -27.2681 17.1753 -19.2391C16.9156 -9.78815 17.7824 1.86896 10.6332 7.52696C3.43204 13.227 -6.7394 6.4347 -15.7477 6.8087C-23.8986 7.1507 -32.7039 14.4747 -39.466 9.61974C-46.2998 4.71274 -43.0415 -6.81227 -46.0364 -14.9423C-48.7981 -22.4423 -56.9452 -27.8951 -56.2333 -35.8881C-55.5063 -44.0011 -48.3241 -49.4549 -42.475 -54.7479C-36.7657 -59.9129 -30.4908 -64.1663 -23.132 -65.8353C-15.0679 -67.6663 -5.96896 -69.3172 0.998956 -64.6132Z" stroke="white"/>
<path opacity="0.2" fill-rule="evenodd" clip-rule="evenodd" d="M4.18264 -71.6342C12.3374 -66.1342 13.7725 -54.6263 17.1828 -45.0673C20.3561 -36.1733 23.5682 -27.5132 23.3095 -18.0312C23.0055 -6.86622 24.0327 6.90892 15.5862 13.5879C7.07838 20.3179 -4.94366 12.2929 -15.5872 12.7359C-25.2177 13.1359 -35.6214 21.784 -43.6128 16.045C-51.6891 10.245 -47.8416 -3.36518 -51.3832 -12.9702C-54.6481 -21.8292 -64.2767 -28.2762 -63.4326 -37.7182C-62.5763 -47.3052 -54.0901 -53.7461 -47.1798 -59.9951C-40.4347 -66.0951 -33.0174 -71.1173 -24.3264 -73.0883C-14.8073 -75.2443 -4.05612 -77.1912 4.18264 -71.6342Z" stroke="white"/>
<path opacity="0.2" fill-rule="evenodd" clip-rule="evenodd" d="M7.4797 -78.9272C16.9364 -72.5452 18.6029 -59.2059 22.5598 -48.1269C26.2421 -37.8159 29.9668 -27.7737 29.6694 -16.7787C29.321 -3.83173 30.5191 12.137 20.7206 19.88C10.856 27.68 -3.08738 18.373 -15.4304 18.88C-26.5999 19.34 -38.6616 29.368 -47.9295 22.712C-57.2955 15.987 -52.8391 0.205924 -56.9452 -10.9311C-60.7332 -21.2021 -71.9008 -28.6788 -70.9189 -39.6308C-69.9275 -50.7428 -60.0874 -58.211 -52.0753 -65.455C-44.2538 -72.525 -35.6582 -78.3468 -25.5755 -80.6288C-14.5373 -83.1168 -2.0705 -85.3742 7.4797 -78.9272Z" stroke="white"/>
<path opacity="0.2" fill-rule="evenodd" clip-rule="evenodd" d="M11.515 -87.8417C22.5617 -80.3827 24.5133 -64.8018 29.1368 -51.8568C33.4403 -39.8108 37.7948 -28.0821 37.4455 -15.2401C37.0395 -0.119135 38.4368 18.5342 26.9955 27.5792C15.4767 36.6862 -0.817664 25.8129 -15.2369 26.4059C-28.2862 26.9419 -42.3759 38.6501 -53.2045 30.8761C-64.1483 23.0191 -58.9422 4.58627 -63.7433 -8.42373C-68.1704 -20.4237 -81.2178 -29.1547 -80.0773 -41.9447C-78.9207 -54.9237 -67.4255 -63.6449 -58.0679 -72.1039C-48.9322 -80.3619 -38.891 -87.1581 -27.1116 -89.8241C-14.2068 -92.7401 0.357831 -95.3717 11.515 -87.8417Z" stroke="white"/>
<path opacity="0.2" fill-rule="evenodd" clip-rule="evenodd" d="M15.9177 -97.5646C28.7045 -88.9366 30.962 -70.9079 36.3116 -55.9299C41.292 -41.9919 46.3329 -28.4197 45.9354 -13.5627C45.4633 3.93233 47.0863 25.512 33.8501 35.972C20.5185 46.508 1.66648 33.9252 -15.0188 34.6112C-30.1178 35.2282 -46.4197 48.7742 -58.9506 39.7772C-71.6147 30.6862 -65.5938 9.36095 -71.1511 -5.69305C-76.276 -19.574 -91.3741 -29.6818 -90.058 -44.4758C-88.721 -59.4948 -75.4235 -69.5759 -64.5949 -79.3669C-54.0202 -88.9189 -42.407 -96.781 -28.7771 -99.861C-13.8471 -103.237 3.0053 -106.28 15.9177 -97.5646Z" stroke="white"/>
<path opacity="0.2" fill-rule="evenodd" clip-rule="evenodd" d="M20.1975 -107.021C34.6734 -97.2511 37.2302 -76.8452 43.2908 -59.8912C48.9312 -44.1152 54.6387 -28.7521 54.1902 -11.9341C53.6615 7.86586 55.496 32.2932 40.5149 44.1332C25.4235 56.0562 4.08161 41.8099 -14.8064 42.5829C-31.8957 43.2829 -50.3513 58.6112 -64.5373 48.4272C-78.8744 38.1342 -72.0604 13.9969 -78.3532 -3.04205C-84.1561 -18.7531 -101.248 -30.196 -99.7602 -46.942C-98.2496 -63.942 -83.1968 -75.3527 -70.9397 -86.4297C-58.9752 -97.2417 -45.8249 -106.139 -30.3954 -109.624C-13.4968 -113.442 5.57997 -116.886 20.1975 -107.021Z" stroke="white"/>
<path opacity="0.2" fill-rule="evenodd" clip-rule="evenodd" d="M24.1111 -115.666C40.1316 -104.856 42.9622 -82.2759 49.6705 -63.5179C55.9124 -46.0599 62.2279 -29.062 61.7341 -10.452C61.1506 11.458 63.1824 38.4891 46.6048 51.5881C29.9045 64.7821 6.28908 49.0173 -14.6156 49.8713C-33.53 50.6413 -53.9485 67.6042 -69.648 56.3322C-85.51 44.9402 -77.9755 18.2321 -84.9435 -0.619942C-91.3638 -18.0079 -110.282 -30.67 -108.635 -49.2C-106.964 -68.009 -90.3082 -80.6369 -76.7444 -92.8929C-63.5053 -104.855 -48.9529 -114.693 -31.8796 -118.553C-13.1767 -122.774 7.93099 -126.582 24.1111 -115.666Z" stroke="white"/>
<path opacity="0.2" fill-rule="evenodd" clip-rule="evenodd" d="M28.2691 -124.849C45.9306 -112.93 49.052 -88.0429 56.4486 -67.3619C63.3316 -48.1159 70.2957 -29.3789 69.75 -8.86189C69.1089 15.2861 71.3551 45.082 53.0751 59.52C34.664 74.062 8.63057 56.6841 -14.4108 57.6201C-35.2617 58.4711 -57.7686 77.1652 -75.077 64.7392C-92.5685 52.1812 -84.2599 22.7389 -91.9388 1.96088C-99.02 -17.2041 -119.873 -31.1629 -118.059 -51.5889C-116.218 -72.3229 -97.854 -86.241 -82.906 -99.751C-68.3121 -112.937 -52.2707 -123.786 -33.4498 -128.034C-12.835 -132.687 10.4358 -136.885 28.2691 -124.849Z" stroke="white"/>
<path opacity="0.2" fill-rule="evenodd" clip-rule="evenodd" d="M32.7917 -134.843C52.2414 -121.717 55.6782 -94.3178 63.8225 -71.5428C71.4013 -50.3558 79.0708 -29.7249 78.4722 -7.14288C77.7669 19.4461 80.2368 52.2512 60.1158 68.1462C39.8484 84.1562 11.1789 65.0224 -14.1898 66.0534C-37.1481 66.9864 -61.9295 87.5694 -80.9865 73.8864C-100.247 60.0604 -91.0994 27.6503 -99.5553 4.7663C-107.353 -16.3337 -130.314 -31.7076 -128.318 -54.1946C-126.292 -77.0196 -106.077 -92.3436 -89.6152 -107.216C-73.5474 -121.733 -55.8859 -133.675 -35.1625 -138.353C-12.4667 -143.476 13.1531 -148.099 32.7917 -134.843Z" stroke="white"/>
</g>
</g>
<path d="M45.0705 25.7273C44.9981 25.1155 44.7043 24.6406 44.1891 24.3026C43.674 23.9645 43.0421 23.7955 42.2935 23.7955C41.7462 23.7955 41.2673 23.884 40.8568 24.0611C40.4503 24.2382 40.1323 24.4817 39.9029 24.7915C39.6775 25.1014 39.5649 25.4536 39.5649 25.848C39.5649 26.178 39.6433 26.4618 39.8003 26.6992C39.9613 26.9326 40.1665 27.1278 40.4161 27.2848C40.6656 27.4377 40.9272 27.5645 41.2009 27.6651C41.4745 27.7617 41.7261 27.8402 41.9555 27.9006L43.2112 28.2386C43.5331 28.3232 43.8913 28.4399 44.2857 28.5888C44.6842 28.7377 45.0645 28.9409 45.4267 29.1985C45.793 29.4521 46.0948 29.7781 46.3323 30.1765C46.5697 30.5749 46.6884 31.0639 46.6884 31.6435C46.6884 32.3116 46.5134 32.9152 46.1632 33.4545C45.8171 33.9938 45.31 34.4225 44.6419 34.7404C43.9779 35.0584 43.1709 35.2173 42.2211 35.2173C41.3357 35.2173 40.569 35.0745 39.921 34.7887C39.2771 34.503 38.77 34.1045 38.3997 33.5934C38.0335 33.0823 37.8262 32.4886 37.7779 31.8125H39.3234C39.3636 32.2794 39.5206 32.6657 39.7943 32.9716C40.072 33.2734 40.4221 33.4988 40.8447 33.6477C41.2713 33.7926 41.7301 33.8651 42.2211 33.8651C42.7926 33.8651 43.3057 33.7725 43.7605 33.5874C44.2153 33.3982 44.5755 33.1366 44.8411 32.8026C45.1068 32.4645 45.2396 32.0701 45.2396 31.6193C45.2396 31.2088 45.1249 30.8748 44.8955 30.6172C44.6661 30.3596 44.3642 30.1503 43.9899 29.9893C43.6156 29.8284 43.2112 29.6875 42.7765 29.5668L41.2552 29.1321C40.2893 28.8544 39.5246 28.458 38.9612 27.9428C38.3977 27.4277 38.116 26.7536 38.116 25.9205C38.116 25.2282 38.3031 24.6245 38.6774 24.1094C39.0557 23.5902 39.5628 23.1877 40.1987 22.902C40.8386 22.6122 41.553 22.4673 42.3418 22.4673C43.1387 22.4673 43.847 22.6102 44.4668 22.896C45.0866 23.1777 45.5776 23.564 45.9399 24.055C46.3061 24.546 46.4993 25.1035 46.5194 25.7273H45.0705ZM52.8446 35.1932C51.9511 35.1932 51.1804 34.996 50.5324 34.6016C49.8885 34.2031 49.3915 33.6477 49.0413 32.9354C48.6952 32.219 48.5222 31.3859 48.5222 30.4361C48.5222 29.4863 48.6952 28.6491 49.0413 27.9247C49.3915 27.1963 49.8784 26.6288 50.5023 26.2223C51.1301 25.8118 51.8626 25.6065 52.6997 25.6065C53.1827 25.6065 53.6596 25.687 54.1305 25.848C54.6013 26.009 55.03 26.2706 55.4163 26.6328C55.8027 26.991 56.1106 27.4659 56.34 28.0575C56.5694 28.6491 56.6841 29.3776 56.6841 30.2429V30.8466H49.5364V29.6151H55.2352C55.2352 29.0919 55.1306 28.625 54.9213 28.2145C54.716 27.804 54.4222 27.48 54.0399 27.2425C53.6616 27.0051 53.2149 26.8864 52.6997 26.8864C52.1322 26.8864 51.6412 27.0272 51.2267 27.3089C50.8162 27.5866 50.5003 27.9489 50.2789 28.3956C50.0575 28.8423 49.9469 29.3213 49.9469 29.8324V30.6534C49.9469 31.3537 50.0676 31.9473 50.3091 32.4343C50.5546 32.9173 50.8947 33.2855 51.3293 33.5391C51.764 33.7886 52.2691 33.9134 52.8446 33.9134C53.2189 33.9134 53.557 33.861 53.8588 33.7564C54.1647 33.6477 54.4283 33.4867 54.6496 33.2734C54.871 33.0561 55.042 32.7865 55.1628 32.4645L56.5392 32.8509C56.3943 33.3177 56.1508 33.7282 55.8087 34.0824C55.4666 34.4325 55.044 34.7062 54.541 34.9034C54.0379 35.0966 53.4724 35.1932 52.8446 35.1932ZM62.7391 35.1932C61.8457 35.1932 61.0749 34.996 60.427 34.6016C59.783 34.2031 59.286 33.6477 58.9359 32.9354C58.5897 32.219 58.4167 31.3859 58.4167 30.4361C58.4167 29.4863 58.5897 28.6491 58.9359 27.9247C59.286 27.1963 59.773 26.6288 60.3968 26.2223C61.0246 25.8118 61.7571 25.6065 62.5942 25.6065C63.0772 25.6065 63.5541 25.687 64.025 25.848C64.4959 26.009 64.9245 26.2706 65.3109 26.6328C65.6972 26.991 66.0051 27.4659 66.2345 28.0575C66.4639 28.6491 66.5786 29.3776 66.5786 30.2429V30.8466H59.4309V29.6151H65.1298C65.1298 29.0919 65.0251 28.625 64.8158 28.2145C64.6106 27.804 64.3168 27.48 63.9344 27.2425C63.5561 27.0051 63.1094 26.8864 62.5942 26.8864C62.0268 26.8864 61.5358 27.0272 61.1212 27.3089C60.7107 27.5866 60.3948 27.9489 60.1734 28.3956C59.9521 28.8423 59.8414 29.3213 59.8414 29.8324V30.6534C59.8414 31.3537 59.9621 31.9473 60.2036 32.4343C60.4491 32.9173 60.7892 33.2855 61.2239 33.5391C61.6585 33.7886 62.1636 33.9134 62.7391 33.9134C63.1134 33.9134 63.4515 33.861 63.7533 33.7564C64.0592 33.6477 64.3228 33.4867 64.5442 33.2734C64.7655 33.0561 64.9366 32.7865 65.0573 32.4645L66.4337 32.8509C66.2888 33.3177 66.0454 33.7282 65.7033 34.0824C65.3612 34.4325 64.9386 34.7062 64.4355 34.9034C63.9324 35.0966 63.367 35.1932 62.7391 35.1932ZM73.7203 35V22.6364H81.1337V23.9645H75.2175V28.142H80.5783V29.4702H75.2175V35H73.7203ZM88.7674 31.2088V25.7273H90.1921V35H88.7674V33.4304H88.6708C88.4534 33.9013 88.1154 34.3017 87.6566 34.6317C87.1978 34.9577 86.6182 35.1207 85.9179 35.1207C85.3384 35.1207 84.8232 34.994 84.3725 34.7404C83.9217 34.4828 83.5675 34.0965 83.31 33.5813C83.0524 33.0621 82.9236 32.4081 82.9236 31.6193V25.7273H84.3483V31.5227C84.3483 32.1989 84.5375 32.7382 84.9158 33.1406C85.2981 33.5431 85.7851 33.7443 86.3767 33.7443C86.7309 33.7443 87.0911 33.6538 87.4573 33.4727C87.8276 33.2915 88.1375 33.0138 88.387 32.6396C88.6406 32.2653 88.7674 31.7884 88.7674 31.2088ZM94.2263 22.6364V35H92.8015V22.6364H94.2263ZM98.2604 22.6364V35H96.8357V22.6364H98.2604ZM105.844 22.6364H107.631L111.833 32.8991H111.978L116.18 22.6364H117.966V35H116.566V25.6065H116.445L112.582 35H111.229L107.366 25.6065H107.245V35H105.844V22.6364ZM124.663 35.1932C123.769 35.1932 122.999 34.996 122.351 34.6016C121.707 34.2031 121.21 33.6477 120.86 32.9354C120.514 32.219 120.341 31.3859 120.341 30.4361C120.341 29.4863 120.514 28.6491 120.86 27.9247C121.21 27.1963 121.697 26.6288 122.321 26.2223C122.948 25.8118 123.681 25.6065 124.518 25.6065C125.001 25.6065 125.478 25.687 125.949 25.848C126.42 26.009 126.848 26.2706 127.235 26.6328C127.621 26.991 127.929 27.4659 128.158 28.0575C128.388 28.6491 128.502 29.3776 128.502 30.2429V30.8466H121.355V29.6151H127.054C127.054 29.0919 126.949 28.625 126.74 28.2145C126.534 27.804 126.241 27.48 125.858 27.2425C125.48 27.0051 125.033 26.8864 124.518 26.8864C123.951 26.8864 123.46 27.0272 123.045 27.3089C122.635 27.5866 122.319 27.9489 122.097 28.3956C121.876 28.8423 121.765 29.3213 121.765 29.8324V30.6534C121.765 31.3537 121.886 31.9473 122.127 32.4343C122.373 32.9173 122.713 33.2855 123.148 33.5391C123.582 33.7886 124.087 33.9134 124.663 33.9134C125.037 33.9134 125.375 33.861 125.677 33.7564C125.983 33.6477 126.247 33.4867 126.468 33.2734C126.689 33.0561 126.86 32.7865 126.981 32.4645L128.358 32.8509C128.213 33.3177 127.969 33.7282 127.627 34.0824C127.285 34.4325 126.862 34.7062 126.359 34.9034C125.856 35.0966 125.291 35.1932 124.663 35.1932ZM132.094 29.4219V35H130.67V25.7273H132.046V27.1761H132.167C132.384 26.7053 132.714 26.3269 133.157 26.0412C133.6 25.7514 134.171 25.6065 134.871 25.6065C135.499 25.6065 136.049 25.7353 136.519 25.9929C136.99 26.2464 137.357 26.6328 137.618 27.152C137.88 27.6671 138.011 28.3191 138.011 29.108V35H136.586V29.2045C136.586 28.4761 136.397 27.9086 136.018 27.5021C135.64 27.0916 135.121 26.8864 134.461 26.8864C134.006 26.8864 133.6 26.985 133.241 27.1822C132.887 27.3794 132.608 27.6671 132.402 28.0455C132.197 28.4238 132.094 28.8826 132.094 29.4219ZM146.458 31.2088V25.7273H147.883V35H146.458V33.4304H146.361C146.144 33.9013 145.806 34.3017 145.347 34.6317C144.888 34.9577 144.309 35.1207 143.608 35.1207C143.029 35.1207 142.514 34.994 142.063 34.7404C141.612 34.4828 141.258 34.0965 141 33.5813C140.743 33.0621 140.614 32.4081 140.614 31.6193V25.7273H142.039V31.5227C142.039 32.1989 142.228 32.7382 142.606 33.1406C142.989 33.5431 143.476 33.7443 144.067 33.7443C144.421 33.7443 144.782 33.6538 145.148 33.4727C145.518 33.2915 145.828 33.0138 146.077 32.6396C146.331 32.2653 146.458 31.7884 146.458 31.2088Z" fill="white"/>
<defs>
<clipPath id="clip0_2_1197">
<path d="M0 6C0 2.68629 2.68629 0 6 0H180C183.314 0 186 2.68629 186 6V54C186 57.3137 183.314 60 180 60H6.00001C2.6863 60 0 57.3137 0 54V6Z" fill="white"/>
</clipPath>
</defs>
</svg>
