<svg width="132" height="52" viewBox="0 0 132 52" fill="none" xmlns="http://www.w3.org/2000/svg">
<path d="M6 0.5H126C129.038 0.5 131.5 2.96243 131.5 6V46C131.5 49.0376 129.038 51.5 126 51.5H6C2.96244 51.5 0.5 49.0376 0.5 46V6C0.5 2.96244 2.96243 0.5 6 0.5Z" stroke="#617283" stroke-opacity="0.2"/>
<path d="M53.2869 22.8182C53.223 22.2784 52.9638 21.8594 52.5092 21.5611C52.0547 21.2628 51.4972 21.1136 50.8366 21.1136C50.3537 21.1136 49.9311 21.1918 49.5689 21.348C49.2102 21.5043 48.9297 21.7191 48.7273 21.9925C48.5284 22.266 48.429 22.5767 48.429 22.9247C48.429 23.2159 48.4982 23.4663 48.6367 23.6758C48.7788 23.8817 48.9599 24.054 49.18 24.1925C49.4002 24.3274 49.631 24.4393 49.8725 24.5281C50.114 24.6133 50.3359 24.6825 50.5384 24.7358L51.6463 25.0341C51.9304 25.1087 52.2464 25.2116 52.5945 25.343C52.946 25.4744 53.2816 25.6538 53.6012 25.881C53.9244 26.1048 54.1907 26.3924 54.4002 26.744C54.6097 27.0955 54.7145 27.527 54.7145 28.0384C54.7145 28.6278 54.56 29.1605 54.2511 29.6364C53.9457 30.1122 53.4982 30.4904 52.9087 30.771C52.3228 31.0515 51.6108 31.1918 50.7727 31.1918C49.9915 31.1918 49.315 31.0657 48.7433 30.8136C48.1751 30.5614 47.7276 30.2099 47.4009 29.7589C47.0778 29.3079 46.8949 28.7841 46.8523 28.1875H48.2159C48.2514 28.5994 48.3899 28.9403 48.6314 29.2102C48.8764 29.4766 49.1854 29.6754 49.5582 29.8068C49.9347 29.9347 50.3395 29.9986 50.7727 29.9986C51.277 29.9986 51.7298 29.9169 52.131 29.7536C52.5323 29.5866 52.8501 29.3558 53.0845 29.0611C53.3189 28.7628 53.4361 28.4148 53.4361 28.017C53.4361 27.6548 53.3349 27.3601 53.1325 27.1328C52.93 26.9055 52.6637 26.7209 52.3335 26.5788C52.0032 26.4368 51.6463 26.3125 51.2628 26.206L49.9205 25.8224C49.0682 25.5774 48.3935 25.2276 47.8963 24.7731C47.3991 24.3185 47.1506 23.7237 47.1506 22.9886C47.1506 22.3778 47.3157 21.8452 47.646 21.3906C47.9798 20.9325 48.4272 20.5774 48.9883 20.3253C49.5529 20.0696 50.1832 19.9418 50.8793 19.9418C51.5824 19.9418 52.2074 20.0678 52.7543 20.32C53.3011 20.5685 53.7344 20.9094 54.054 21.3427C54.3771 21.7759 54.5476 22.2678 54.5653 22.8182H53.2869ZM56.716 31V22.8182H57.9731V31H56.716ZM57.3552 21.4545C57.1102 21.4545 56.8989 21.3711 56.7213 21.2042C56.5473 21.0373 56.4603 20.8366 56.4603 20.6023C56.4603 20.3679 56.5473 20.1673 56.7213 20.0004C56.8989 19.8335 57.1102 19.75 57.3552 19.75C57.6002 19.75 57.8097 19.8335 57.9838 20.0004C58.1613 20.1673 58.2501 20.3679 58.2501 20.6023C58.2501 20.8366 58.1613 21.0373 57.9838 21.2042C57.8097 21.3711 57.6002 21.4545 57.3552 21.4545ZM63.3651 31.1705C62.6832 31.1705 62.0813 30.9982 61.5593 30.6538C61.0373 30.3058 60.6289 29.8157 60.3342 29.1836C60.0394 28.5479 59.892 27.7969 59.892 26.9304C59.892 26.071 60.0394 25.3253 60.3342 24.6932C60.6289 24.0611 61.0391 23.5728 61.5646 23.2283C62.0902 22.8839 62.6974 22.7116 63.3864 22.7116C63.919 22.7116 64.3398 22.8004 64.6488 22.978C64.9613 23.152 65.1992 23.3509 65.3626 23.5746C65.5295 23.7947 65.6591 23.9759 65.7514 24.1179H65.858V20.0909H67.1151V31H65.9006V29.7429H65.7514C65.6591 29.892 65.5277 30.0803 65.3572 30.3075C65.1868 30.5312 64.9435 30.7319 64.6275 30.9094C64.3114 31.0835 63.8906 31.1705 63.3651 31.1705ZM63.5355 30.0412C64.0398 30.0412 64.4659 29.9098 64.8139 29.647C65.1619 29.3807 65.4265 29.0131 65.6076 28.5444C65.7887 28.0721 65.8793 27.527 65.8793 26.9091C65.8793 26.2983 65.7905 25.7638 65.6129 25.3058C65.4354 24.8441 65.1726 24.4854 64.8246 24.2298C64.4766 23.9705 64.0469 23.8409 63.5355 23.8409C63.0028 23.8409 62.5589 23.9776 62.2038 24.2511C61.8523 24.521 61.5877 24.8885 61.4102 25.3537C61.2362 25.8153 61.1491 26.3338 61.1491 26.9091C61.1491 27.4915 61.2379 28.0206 61.4155 28.4964C61.5966 28.9687 61.8629 29.3452 62.2145 29.6257C62.5696 29.9027 63.0099 30.0412 63.5355 30.0412ZM73.0224 31.1705C72.234 31.1705 71.554 30.9964 70.9822 30.6484C70.4141 30.2969 69.9755 29.8068 69.6665 29.1783C69.3612 28.5462 69.2085 27.8111 69.2085 26.973C69.2085 26.1349 69.3612 25.3963 69.6665 24.7571C69.9755 24.1143 70.4052 23.6136 70.9556 23.255C71.5096 22.8928 72.1559 22.7116 72.8945 22.7116C73.3207 22.7116 73.7415 22.7827 74.157 22.9247C74.5724 23.0668 74.9506 23.2976 75.2915 23.6172C75.6325 23.9332 75.9041 24.3523 76.1065 24.8743C76.3089 25.3963 76.4102 26.0391 76.4102 26.8026V27.3352H70.1033V26.2486H75.1317C75.1317 25.7869 75.0394 25.375 74.8548 25.0128C74.6737 24.6506 74.4144 24.3647 74.0771 24.1552C73.7433 23.9457 73.3491 23.8409 72.8945 23.8409C72.3938 23.8409 71.9606 23.9652 71.5948 24.2138C71.2326 24.4588 70.9538 24.7784 70.7585 25.1726C70.5632 25.5668 70.4656 25.9893 70.4656 26.4403V27.1648C70.4656 27.7827 70.5721 28.3065 70.7852 28.7362C71.0018 29.1623 71.3018 29.4872 71.6854 29.7109C72.0689 29.9311 72.5146 30.0412 73.0224 30.0412C73.3526 30.0412 73.6509 29.995 73.9173 29.9027C74.1871 29.8068 74.4197 29.6648 74.6151 29.4766C74.8104 29.2848 74.9613 29.0469 75.0678 28.7628L76.2823 29.1037C76.1545 29.5156 75.9396 29.8778 75.6378 30.1903C75.3359 30.4993 74.9631 30.7408 74.5192 30.9148C74.0753 31.0852 73.5763 31.1705 73.0224 31.1705ZM84.1179 24.6506L82.9886 24.9702C82.9176 24.782 82.8129 24.5991 82.6744 24.4215C82.5394 24.2404 82.3548 24.0913 82.1204 23.9741C81.886 23.8569 81.5859 23.7983 81.2202 23.7983C80.7195 23.7983 80.3022 23.9137 79.9684 24.1445C79.6381 24.3718 79.473 24.6612 79.473 25.0128C79.473 25.3253 79.5866 25.5721 79.8139 25.7532C80.0412 25.9343 80.3963 26.0852 80.8793 26.206L82.0938 26.5043C82.8253 26.6818 83.3704 26.9535 83.729 27.3192C84.0877 27.6815 84.267 28.1484 84.267 28.7202C84.267 29.1889 84.1321 29.608 83.8622 29.9773C83.5959 30.3466 83.223 30.6378 82.7436 30.8509C82.2642 31.0639 81.7067 31.1705 81.071 31.1705C80.2365 31.1705 79.5458 30.9893 78.9989 30.6271C78.4521 30.2649 78.1058 29.7358 77.9602 29.0398L79.1534 28.7415C79.267 29.1818 79.4819 29.5121 79.7979 29.7322C80.1175 29.9524 80.5348 30.0625 81.0497 30.0625C81.6357 30.0625 82.1009 29.9382 82.4453 29.6896C82.7933 29.4375 82.9673 29.1357 82.9673 28.7841C82.9673 28.5 82.8679 28.2621 82.669 28.0703C82.4702 27.875 82.1648 27.7294 81.7528 27.6335L80.3892 27.3139C79.6399 27.1364 79.0895 26.8612 78.7379 26.4883C78.3899 26.1119 78.2159 25.6413 78.2159 25.0767C78.2159 24.6151 78.3455 24.2067 78.6048 23.8516C78.8675 23.4964 79.2244 23.2177 79.6754 23.0153C80.13 22.8129 80.6449 22.7116 81.2202 22.7116C82.0298 22.7116 82.6655 22.8892 83.1271 23.2443C83.5923 23.5994 83.9226 24.0682 84.1179 24.6506Z" fill="#222222"/>
</svg>
